<?xml version="1.0" standalone="no"?>
<!DOCTYPE svg PUBLIC "-//W3C//DTD SVG 1.1//EN"
"http://www.w3.org/Graphics/SVG/1.1/DTD/svg11.dtd">
<!-- Creator: fig2dev Version 3.2 Patchlevel 5e -->
<!-- CreationDate: Sat Oct 28 23:06:36 2017 -->
<!-- Magnification: 1.000 -->
<svg	xmlns="http://www.w3.org/2000/svg"
	xmlns:xlink="http://www.w3.org/1999/xlink"
	width="13.8in" height="2.2in"
	viewBox="701 1800 16615 2684">
<g style="stroke-width:.025in; fill:none">
<!-- Line -->
<polyline points="5561,2783
5721,2369
" style="stroke:#000000;stroke-width:30;
stroke-linejoin:bevel; stroke-linecap:round;
"/>
<!-- Line -->
<polyline points="13776,2570
13775,2568
13773,2566
13770,2564
13767,2563
13764,2564
13762,2566
13760,2568
13758,2570
13757,2571
13756,2572
13755,2574
13755,2578
13756,2582
13760,2589
13764,2593
13768,2597
13773,2600
13779,2602
13783,2601
13784,2597
13785,2592
13785,2587
13785,2585
13785,2584
" style="stroke:#000000;stroke-width:30;
stroke-linejoin:bevel; stroke-linecap:round;
"/>
<!-- Line -->
<polyline points="15676,2786
15830,2377
" style="stroke:#000000;stroke-width:30;
stroke-linejoin:bevel; stroke-linecap:round;
"/>
<!-- Line -->
<polyline points="10032,3732
10033,3732
10039,3732
10051,3732
10067,3732
10086,3731
10104,3731
10119,3730
10132,3729
10144,3728
10156,3727
10167,3726
10179,3724
10191,3722
10204,3719
10217,3716
10230,3713
10243,3709
10256,3706
10267,3702
10279,3698
10290,3694
10302,3689
10315,3684
10328,3678
10342,3672
10355,3666
10369,3660
10381,3654
10394,3648
10406,3642
10415,3636
10426,3631
10436,3625
10448,3619
10459,3612
10472,3604
10484,3596
10497,3588
10509,3580
10522,3571
10534,3562
10546,3553
10557,3544
10569,3535
10581,3525
10594,3514
10607,3503
10621,3491
10635,3478
10649,3465
10663,3452
10677,3439
10691,3426
10704,3414
10716,3401
10728,3389
10739,3378
10749,3367
10760,3356
10771,3344
10782,3332
10794,3319
10806,3306
10818,3293
10830,3279
10842,3265
10854,3252
10866,3238
10877,3225
10888,3212
10899,3199
10910,3186
10920,3174
10931,3162
10941,3150
10952,3137
10964,3123
10976,3109
10988,3094
11000,3078
11013,3063
11026,3046
11039,3030
11052,3014
11064,2997
11077,2981
11089,2964
11101,2948
11113,2932
11125,2916
11136,2899
11148,2882
11160,2864
11173,2845
11185,2826
11198,2807
11211,2787
11224,2766
11237,2746
11249,2726
11261,2707
11273,2688
11284,2670
11294,2652
11303,2636
11312,2621
11320,2607
11327,2594
11337,2575
11346,2557
11355,2540
11362,2524
11369,2509
11375,2495
11380,2482
11384,2469
11388,2458
11391,2448
11393,2438
11396,2429
11398,2419
11400,2408
11403,2396
11404,2385
11406,2373
11407,2362
11407,2352
11407,2342
11406,2334
11405,2327
11403,2320
11400,2313
11397,2307
11393,2301
11388,2296
11382,2292
11376,2288
11371,2285
11364,2283
11358,2282
11350,2281
11342,2281
11332,2282
11322,2284
11312,2288
11303,2292
11294,2296
11286,2302
11279,2308
11271,2315
11264,2324
11256,2333
11249,2344
11243,2354
11236,2365
11231,2375
11226,2384
11222,2393
11217,2403
11212,2413
11207,2424
11202,2436
11197,2448
11193,2459
11189,2470
11185,2481
11183,2488
11180,2496
11178,2504
11175,2514
11172,2524
11168,2536
11164,2549
11160,2564
11155,2581
11149,2599
11143,2618
11137,2640
11130,2663
11122,2687
11114,2713
11105,2742
11098,2762
11091,2784
11084,2806
11076,2830
11068,2856
11059,2883
11050,2911
11041,2940
11031,2969
11021,3000
11012,3031
11002,3062
10992,3093
10982,3124
10972,3155
10963,3185
10954,3214
10946,3242
10938,3268
10930,3294
10923,3318
10916,3341
10910,3363
10905,3383
10897,3412
10890,3438
10885,3463
10880,3486
10876,3507
10872,3527
10870,3545
10868,3561
10866,3576
10866,3589
10866,3600
10866,3610
10867,3618
10868,3626
10869,3632
10871,3638
10873,3649
10877,3659
10881,3669
10886,3677
10891,3685
10896,3691
10901,3697
10907,3701
10912,3705
10919,3709
10926,3713
10934,3716
10943,3719
10952,3721
10961,3723
10970,3724
10980,3724
10990,3725
11002,3725
11014,3724
11028,3723
11041,3722
11054,3720
11066,3718
11077,3717
11088,3715
11099,3713
11111,3710
11124,3708
11136,3704
11148,3701
11160,3697
11171,3693
11181,3689
11191,3685
11200,3679
11211,3673
11221,3667
11232,3659
11242,3652
11253,3644
11262,3635
11272,3627
11281,3619
11289,3612
11297,3604
11306,3596
11315,3587
11325,3578
11334,3568
11344,3559
11353,3549
11362,3540
11371,3530
11380,3521
11388,3513
11396,3504
11404,3495
11412,3486
11421,3476
11430,3466
11438,3456
11447,3445
11456,3435
11464,3426
11472,3416
11479,3408
11486,3399
11495,3389
11504,3378
11513,3367
11522,3355
11531,3344
11540,3332
11549,3321
11557,3310
11565,3300
11572,3290
11579,3280
11586,3270
11594,3259
11601,3248
11608,3237
11616,3226
11623,3216
11629,3206
11636,3196
11642,3187
11648,3178
11654,3169
11661,3159
11668,3150
11675,3140
11682,3131
11689,3122
11696,3114
11702,3106
11709,3100
11717,3091
11725,3083
11735,3076
11745,3068
11755,3061
11765,3054
11774,3048
11783,3043
11793,3038
11803,3033
11814,3028
11825,3024
11836,3020
11847,3016
11858,3013
11867,3011
11877,3009
11886,3008
11897,3007
11907,3006
11917,3006
11927,3006
11936,3006
11944,3006
11952,3006
11961,3007
11971,3008
11982,3009
11995,3010
12005,3010
12010,3011
12011,3011
" style="stroke:#000000;stroke-width:30;
stroke-linejoin:bevel; stroke-linecap:round;
"/>
<!-- Line -->
<polyline points="11655,3158
11655,3159
11653,3162
11648,3171
11641,3185
11633,3202
11624,3219
11616,3236
11609,3251
11602,3265
11597,3277
11592,3289
11588,3300
11584,3311
11581,3322
11577,3334
11574,3347
11570,3360
11567,3373
11564,3386
11561,3399
11559,3411
11557,3423
11554,3434
11553,3445
11550,3458
11548,3471
11546,3484
11543,3498
11541,3512
11539,3525
11537,3538
11536,3549
11535,3560
11534,3570
11532,3581
11532,3593
11531,3604
11531,3615
11531,3625
11531,3634
11531,3642
11532,3649
11533,3658
11535,3667
11537,3675
11539,3683
11541,3690
11544,3696
11547,3702
11551,3709
11555,3715
11560,3721
11566,3727
11572,3731
11580,3735
11588,3738
11598,3741
11610,3743
11621,3744
11632,3743
11641,3742
11650,3741
11660,3738
11671,3735
11682,3731
11692,3727
11702,3722
11711,3717
11719,3712
11728,3705
11737,3698
11746,3689
11756,3681
11764,3672
11773,3663
11781,3654
11788,3646
11794,3639
11802,3630
11809,3621
11817,3612
11824,3602
11831,3593
11837,3583
11843,3575
11849,3566
11853,3557
11858,3548
11863,3538
11867,3528
11871,3517
11876,3507
11880,3496
11883,3485
11887,3475
11891,3465
11894,3455
11898,3444
11903,3433
11907,3420
11912,3408
11917,3395
11921,3382
11926,3370
11930,3358
11933,3347
11937,3335
11941,3323
11944,3310
11948,3297
11952,3283
11955,3270
11959,3257
11962,3245
11965,3233
11968,3222
11971,3212
11973,3201
11976,3190
11980,3178
11983,3167
11986,3155
11989,3144
11991,3134
11994,3124
11996,3115
11998,3106
12000,3096
12003,3085
12005,3073
12008,3059
12011,3044
12013,3031
12015,3021
12016,3017
12016,3016
" style="stroke:#000000;stroke-width:30;
stroke-linejoin:bevel; stroke-linecap:round;
"/>
<!-- Line -->
<polyline points="11924,3377
11924,3378
11922,3383
11919,3394
11914,3409
11909,3425
11904,3441
11899,3455
11896,3467
11893,3478
11890,3488
11887,3499
11884,3510
11881,3521
11878,3533
11876,3545
11873,3557
11871,3568
11869,3578
11867,3588
11865,3597
11864,3607
11862,3617
11861,3627
11860,3637
11860,3646
11860,3655
11860,3662
11861,3668
11863,3676
11865,3684
11869,3691
11873,3698
11878,3704
11884,3708
11890,3712
11897,3716
11905,3720
11914,3723
11923,3725
11931,3727
11940,3728
11950,3729
11960,3730
11971,3731
11982,3731
11992,3732
12000,3732
12009,3732
12018,3732
12028,3731
12038,3731
12047,3730
12056,3729
12065,3728
12074,3726
12083,3724
12092,3721
12103,3717
12113,3713
12124,3708
12135,3703
12146,3697
12156,3692
12166,3686
12177,3680
12189,3672
12201,3664
12213,3656
12225,3648
12237,3640
12248,3632
12258,3624
12268,3616
12278,3608
12288,3599
12299,3589
12309,3579
12320,3569
12330,3559
12339,3549
12348,3540
12357,3530
12365,3522
12372,3514
12380,3505
12389,3495
12398,3485
12407,3474
12417,3463
12426,3451
12436,3439
12445,3428
12455,3416
12464,3404
12471,3394
12479,3384
12487,3374
12495,3362
12504,3350
12514,3337
12524,3323
12535,3308
12547,3292
12558,3276
12570,3260
12582,3243
12595,3226
12607,3209
12620,3191
12634,3173
12645,3157
12656,3141
12668,3125
12681,3107
12694,3089
12708,3070
12722,3051
12737,3031
12752,3010
12767,2989
12782,2968
12797,2948
12812,2927
12826,2907
12840,2888
12853,2869
12866,2851
12878,2834
12890,2817
12901,2802
12914,2782
12927,2763
12940,2744
12952,2726
12965,2707
12976,2689
12988,2672
12999,2655
13009,2638
13019,2622
13028,2608
13036,2594
13044,2582
13050,2570
13057,2559
13062,2549
13070,2534
13078,2520
13085,2506
13091,2493
13097,2480
13102,2468
13106,2457
13110,2447
13113,2438
13116,2429
13119,2419
13122,2408
13124,2396
13127,2384
13129,2373
13130,2363
13131,2353
13132,2345
13131,2334
13130,2323
13128,2313
13125,2304
13121,2296
13117,2290
13112,2286
13106,2282
13099,2279
13091,2277
13083,2276
13075,2276
13068,2276
13061,2277
13053,2278
13045,2280
13037,2283
13028,2287
13021,2291
13013,2295
13005,2301
12998,2307
12989,2315
12981,2323
12973,2332
12965,2341
12958,2350
12952,2359
12946,2368
12940,2378
12934,2389
12928,2400
12922,2411
12917,2422
12913,2433
12909,2443
12905,2451
12902,2460
12899,2469
12896,2479
12892,2490
12889,2501
12885,2512
12882,2524
12878,2535
12875,2547
12872,2557
12868,2568
12865,2580
12861,2593
12857,2606
12852,2620
12848,2635
12844,2649
12840,2663
12836,2676
12833,2690
12830,2703
12827,2712
12825,2722
12822,2732
12820,2744
12817,2756
12814,2769
12810,2783
12807,2798
12803,2814
12799,2831
12794,2849
12790,2867
12784,2887
12779,2908
12773,2930
12767,2953
12762,2971
12757,2990
12752,3010
12746,3031
12740,3053
12733,3076
12726,3100
12720,3125
12712,3150
12705,3176
12698,3202
12690,3228
12683,3253
12676,3279
12669,3303
12662,3326
12656,3349
12650,3370
12644,3390
12639,3409
12634,3427
12630,3443
12622,3471
12615,3496
12609,3519
12603,3539
12599,3558
12595,3574
12592,3588
12589,3600
12587,3610
12586,3618
12585,3625
12585,3632
12585,3644
12585,3656
12587,3667
12589,3678
12592,3687
12595,3694
12598,3701
12603,3707
12608,3712
12614,3717
12620,3721
12626,3723
12633,3726
12640,3727
12649,3729
12659,3729
12668,3730
12677,3729
12686,3729
12697,3727
12707,3726
12718,3723
12728,3721
12737,3718
12746,3714
12755,3710
12764,3705
12773,3699
12781,3692
12789,3686
12795,3680
12802,3674
12809,3666
12816,3658
12823,3649
12830,3640
12837,3631
12844,3622
12849,3614
12854,3605
12859,3595
12865,3585
12870,3575
12876,3564
12882,3553
12887,3543
12892,3533
12897,3523
12901,3514
12906,3504
12912,3494
12917,3483
12922,3472
12928,3461
12933,3450
12938,3439
12942,3429
12946,3419
12951,3409
12955,3399
12959,3388
12964,3376
12968,3364
12972,3351
12976,3339
12980,3328
12983,3316
12987,3306
12990,3295
12993,3284
12996,3272
12999,3260
13002,3247
13005,3235
13007,3223
13009,3212
13012,3201
13013,3191
13015,3181
13017,3171
13018,3160
13019,3149
13021,3138
13022,3128
13023,3117
13023,3107
13024,3098
13024,3090
13024,3079
13024,3068
13024,3057
13023,3046
13022,3036
13021,3028
13020,3020
13019,3014
13016,3007
13014,3001
13010,2997
13007,2994
13003,2992
12999,2991
12994,2991
12989,2992
12983,2993
12977,2996
12972,2999
12967,3002
12963,3005
12958,3010
12954,3015
12951,3021
12948,3027
12945,3033
12943,3041
12941,3050
12940,3059
12940,3068
12940,3077
12941,3086
12942,3096
12944,3106
12946,3116
12949,3125
12952,3132
12955,3138
12958,3144
12963,3150
12968,3155
12973,3160
12979,3164
12985,3168
12993,3172
13002,3176
13013,3180
13023,3184
13035,3187
13044,3189
13054,3192
13065,3194
13077,3197
13089,3199
13101,3201
13113,3203
13124,3205
13135,3206
13146,3207
13159,3209
13171,3210
13184,3211
13197,3211
13209,3212
13221,3212
13231,3212
13242,3212
13253,3211
13264,3211
13277,3210
13289,3209
13302,3208
13313,3207
13325,3206
13336,3205
13347,3204
13359,3203
13371,3201
13384,3200
13397,3198
13410,3196
13423,3194
13435,3191
13446,3189
13457,3187
13467,3184
13478,3181
13489,3178
13500,3174
13512,3170
13523,3165
13533,3161
13542,3157
13551,3153
13559,3148
13569,3143
13578,3137
13588,3131
13597,3124
13605,3118
13612,3112
13619,3106
13624,3100
13631,3093
13636,3085
13642,3077
13646,3069
13650,3061
13654,3053
13656,3045
13660,3035
13663,3023
13667,3010
13670,3001
13670,2999
" style="stroke:#000000;stroke-width:30;
stroke-linejoin:bevel; stroke-linecap:round;
"/>
<!-- Line -->
<polyline points="14357,3176
14357,3175
14360,3170
14365,3159
14371,3147
14377,3135
14382,3125
14387,3117
14391,3110
14396,3102
14401,3095
14406,3087
14412,3079
14418,3072
14425,3065
14431,3058
14437,3053
14443,3047
14450,3042
14457,3036
14465,3031
14473,3026
14480,3022
14487,3018
14493,3015
14501,3011
14509,3008
14518,3004
14526,3002
14535,3000
14543,2999
14551,2998
14560,2997
14569,2997
14579,2998
14588,2999
14596,3001
14603,3003
14610,3007
14617,3012
14624,3018
14629,3024
14634,3032
14636,3037
14639,3044
14641,3052
14642,3060
14644,3069
14644,3078
14644,3087
14644,3096
14642,3105
14641,3115
14638,3125
14635,3136
14632,3146
14628,3157
14624,3166
14621,3175
14617,3183
14612,3191
14607,3199
14602,3207
14597,3215
14592,3222
14587,3228
14582,3234
14575,3241
14568,3248
14561,3255
14553,3262
14545,3267
14537,3272
14529,3276
14520,3281
14511,3285
14501,3288
14492,3290
14484,3291
14478,3291
14473,3290
14467,3289
14462,3287
14457,3285
14453,3282
14449,3279
14447,3276
14445,3272
14443,3267
14442,3263
14442,3257
14442,3252
14443,3247
14444,3243
14446,3239
14450,3234
14454,3229
14460,3225
14466,3221
14473,3219
14479,3217
14485,3216
14492,3216
14499,3216
14506,3217
14512,3219
14518,3221
14524,3223
14530,3227
14535,3231
14540,3235
14545,3240
14548,3246
14551,3252
14554,3259
14556,3268
14559,3279
14562,3290
14565,3302
14567,3311
14570,3322
14573,3334
14576,3348
14579,3361
14582,3374
14584,3387
14586,3399
14588,3410
14589,3422
14590,3435
14590,3448
14591,3460
14592,3472
14592,3483
14592,3493
14593,3503
14594,3513
14595,3524
14596,3534
14597,3545
14599,3556
14601,3566
14603,3575
14605,3585
14608,3596
14611,3607
14615,3618
14618,3629
14622,3640
14626,3649
14630,3658
14634,3666
14638,3674
14643,3682
14647,3689
14652,3696
14657,3702
14662,3707
14666,3712
14673,3717
14680,3721
14688,3725
14696,3728
14705,3731
14713,3732
14720,3733
14727,3734
14735,3734
14744,3733
14753,3732
14762,3731
14771,3728
14780,3725
14785,3723
14792,3720
14798,3716
14806,3711
14814,3705
14823,3698
14833,3690
14844,3681
14855,3671
14867,3660
14880,3648
14893,3635
14903,3625
14913,3615
14924,3604
14935,3592
14947,3579
14960,3565
14974,3551
14988,3536
15002,3521
15016,3506
15030,3491
15044,3476
15057,3461
15070,3447
15082,3434
15094,3421
15106,3408
15116,3396
15130,3382
15142,3367
15155,3353
15167,3339
15180,3326
15191,3312
15203,3299
15213,3287
15224,3275
15233,3265
15242,3254
15249,3245
15257,3236
15264,3228
15273,3217
15282,3206
15291,3195
15300,3184
15308,3174
15317,3164
15325,3154
15332,3145
15340,3137
15347,3129
15354,3121
15361,3114
15369,3106
15377,3098
15386,3090
15394,3083
15403,3076
15412,3069
15420,3064
15428,3058
15438,3052
15450,3046
15462,3041
15474,3035
15487,3031
15499,3026
15510,3023
15520,3020
15531,3017
15541,3014
15552,3012
15564,3010
15575,3008
15586,3006
15596,3005
15605,3004
15615,3004
15625,3003
15637,3003
15652,3002
15667,3002
15680,3002
15687,3002
15688,3002
" style="stroke:#000000;stroke-width:30;
stroke-linejoin:bevel; stroke-linecap:round;
"/>
<!-- Line -->
<polyline points="13670,2996
13670,2997
13669,3002
13666,3013
13663,3030
13658,3051
13653,3074
13649,3096
13644,3116
13640,3134
13636,3150
13633,3166
13629,3182
13625,3196
13621,3210
13618,3226
13613,3242
13609,3258
13604,3276
13600,3293
13595,3310
13590,3327
13586,3344
13581,3360
13577,3375
13573,3390
13570,3404
13565,3419
13561,3435
13557,3451
13552,3467
13548,3482
13544,3498
13540,3513
13536,3527
13533,3540
13530,3552
13528,3563
13525,3573
13522,3587
13520,3601
13518,3614
13517,3627
13516,3639
13516,3650
13517,3659
13519,3668
13521,3674
13523,3680
13526,3686
13530,3692
13535,3698
13540,3704
13545,3708
13551,3713
13557,3716
13564,3719
13573,3723
13583,3725
13595,3728
13608,3729
13621,3730
13635,3731
13648,3730
13660,3730
13671,3729
13681,3728
13693,3726
13705,3724
13717,3722
13730,3719
13742,3716
13754,3712
13765,3708
13776,3705
13786,3700
13798,3695
13809,3690
13821,3683
13833,3676
13845,3669
13857,3662
13868,3655
13878,3648
13888,3641
13897,3633
13907,3625
13917,3617
13927,3608
13938,3599
13948,3589
13958,3579
13968,3570
13977,3561
13986,3552
13994,3544
14001,3536
14010,3528
14018,3519
14027,3510
14036,3500
14046,3490
14055,3480
14063,3470
14072,3460
14080,3451
14088,3441
14095,3433
14102,3424
14110,3414
14118,3404
14126,3393
14135,3382
14144,3369
14153,3356
14163,3343
14173,3329
14183,3316
14193,3302
14204,3287
14214,3273
14223,3261
14232,3248
14242,3235
14252,3221
14263,3206
14274,3190
14286,3174
14298,3157
14311,3140
14323,3122
14336,3105
14349,3087
14362,3070
14374,3053
14386,3037
14398,3020
14410,3005
14422,2989
14433,2973
14445,2957
14457,2941
14469,2925
14481,2908
14493,2891
14506,2874
14519,2857
14531,2840
14543,2823
14555,2806
14567,2790
14578,2775
14588,2760
14598,2747
14607,2734
14615,2721
14623,2709
14633,2694
14642,2680
14652,2666
14660,2652
14669,2638
14677,2625
14684,2611
14692,2599
14698,2587
14704,2576
14710,2566
14715,2556
14720,2548
14724,2540
14730,2528
14736,2518
14741,2507
14747,2496
14752,2486
14757,2476
14761,2467
14765,2458
14769,2450
14772,2443
14775,2434
14778,2424
14781,2415
14784,2405
14786,2396
14788,2387
14789,2379
14791,2371
14792,2361
14793,2350
14794,2340
14795,2329
14794,2320
14794,2311
14792,2305
14791,2299
14789,2293
14786,2287
14782,2281
14778,2277
14774,2273
14769,2270
14763,2267
14756,2266
14749,2265
14740,2264
14731,2265
14722,2267
14713,2269
14704,2272
14695,2276
14685,2281
14675,2287
14665,2294
14654,2302
14644,2311
14635,2320
14627,2329
14620,2337
14613,2346
14607,2355
14600,2366
14593,2377
14586,2389
14580,2402
14574,2414
14569,2427
14564,2440
14561,2447
14558,2455
14555,2463
14552,2473
14549,2483
14545,2495
14541,2509
14537,2523
14532,2540
14527,2558
14521,2578
14515,2599
14509,2622
14502,2647
14495,2673
14488,2701
14480,2731
14471,2763
14465,2783
14460,2805
14454,2827
14447,2852
14440,2878
14432,2906
14424,2936
14415,2968
14406,3003
14396,3040
14385,3080
14373,3123
14361,3168
14348,3216
14335,3266
14321,3318
14306,3370
14292,3422
14278,3473
14265,3522
14253,3567
14242,3608
14232,3643
14225,3672
14218,3694
14214,3710
14211,3721
14210,3726
14209,3729
" style="stroke:#000000;stroke-width:30;
stroke-linejoin:bevel; stroke-linecap:round;
"/>
<!-- Line -->
<polyline points="15342,3126
15342,3127
15339,3132
15333,3144
15324,3161
15315,3179
15307,3197
15299,3212
15293,3225
15287,3238
15282,3250
15276,3261
15271,3274
15265,3287
15260,3301
15254,3315
15249,3329
15244,3343
15239,3357
15235,3369
15231,3382
15227,3394
15223,3406
15220,3419
15216,3433
15213,3446
15210,3459
15207,3472
15205,3484
15203,3495
15201,3506
15199,3516
15198,3526
15197,3537
15196,3548
15195,3558
15194,3569
15194,3579
15194,3588
15193,3597
15194,3606
15194,3616
15194,3627
15195,3637
15197,3648
15198,3658
15201,3668
15203,3676
15206,3684
15209,3690
15213,3697
15218,3702
15224,3708
15231,3713
15238,3717
15245,3720
15253,3722
15262,3723
15271,3724
15282,3724
15294,3723
15307,3721
15319,3718
15331,3713
15343,3708
15352,3703
15362,3696
15372,3689
15383,3680
15394,3671
15404,3661
15414,3650
15424,3640
15433,3629
15442,3619
15448,3610
15455,3601
15462,3592
15469,3581
15477,3571
15484,3559
15491,3548
15498,3536
15504,3525
15510,3513
15516,3502
15522,3491
15528,3479
15533,3467
15539,3454
15546,3440
15552,3425
15558,3410
15564,3395
15571,3380
15576,3366
15582,3352
15587,3338
15593,3325
15598,3312
15603,3298
15608,3285
15613,3270
15619,3256
15624,3242
15629,3227
15634,3214
15638,3201
15642,3189
15645,3179
15649,3169
15653,3154
15657,3140
15660,3127
15663,3114
15666,3101
15669,3090
15671,3081
15673,3072
15675,3064
15676,3055
15679,3045
15681,3035
15684,3023
15687,3014
15688,3009
15688,3008
" style="stroke:#000000;stroke-width:30;
stroke-linejoin:bevel; stroke-linecap:round;
"/>
<!-- Line -->
<polyline points="15588,3348
15587,3351
15585,3356
15582,3364
15579,3374
15574,3386
15570,3399
15565,3415
15559,3433
15552,3454
15546,3475
15540,3491
15537,3501
15535,3507
15533,3510
15532,3514
15530,3519
15527,3529
15524,3545
15520,3564
15517,3587
15515,3602
15515,3610
15515,3614
15515,3618
15516,3625
15516,3637
15517,3655
15518,3675
15519,3685
15517,3688
15517,3690
15520,3697
15528,3709
15540,3719
15547,3724
15550,3725
15554,3726
15565,3728
15585,3732
15602,3734
15614,3736
15620,3736
15623,3737
15626,3737
15633,3737
15649,3735
15673,3732
15695,3728
15712,3725
15724,3723
15731,3722
15736,3721
15741,3721
15748,3719
15761,3715
15780,3707
15804,3697
15824,3687
15841,3678
15852,3671
15859,3667
15863,3664
15866,3661
15868,3659
15872,3656
15879,3650
15890,3641
15906,3629
15925,3614
15944,3599
15959,3586
15969,3578
15975,3573
15978,3572
15980,3571
15981,3571
15984,3568
15990,3562
16002,3550
16019,3532
16040,3508
16057,3488
16073,3469
16086,3452
16097,3439
16105,3428
16111,3419
16116,3413
16120,3407
16124,3400
16128,3393
16134,3385
16142,3374
16153,3359
16166,3342
16181,3322
16197,3300
16217,3273
16233,3253
16243,3239
16249,3232
16252,3229
16253,3228
16254,3228
16256,3225
16261,3219
16270,3206
16282,3188
16298,3164
16314,3139
16328,3116
16340,3095
16351,3076
16361,3059
16369,3043
16377,3029
16383,3016
16388,3007
16391,3002
16392,2999
" style="stroke:#000000;stroke-width:30;
stroke-linejoin:bevel; stroke-linecap:round;
"/>
<!-- Line -->
<polyline points="16392,2999
16392,3001
16393,3010
16396,3023
16398,3035
16401,3044
16404,3051
16407,3056
16411,3061
16415,3065
16420,3069
16426,3073
16432,3075
16438,3077
16444,3078
16453,3079
16463,3077
16474,3075
16484,3071
16494,3066
16503,3061
16508,3056
16514,3050
16520,3042
16527,3033
16534,3022
16540,3013
16542,3009
16543,3008
" style="stroke:#000000;stroke-width:30;
stroke-linejoin:bevel; stroke-linecap:round;
"/>
<!-- Line -->
<polyline points="16543,3008
16543,3009
16542,3012
16540,3021
16537,3034
16532,3051
16528,3069
16523,3088
16518,3106
16514,3124
16509,3142
16504,3161
16499,3182
16495,3197
16491,3214
16486,3231
16482,3249
16477,3269
16471,3289
16466,3310
16461,3331
16455,3353
16449,3375
16444,3396
16439,3417
16434,3437
16429,3456
16425,3473
16420,3490
16417,3505
16413,3519
16408,3542
16403,3563
16399,3581
16396,3598
16394,3612
16392,3624
16392,3634
16392,3643
16392,3650
16393,3656
16395,3665
16399,3675
16404,3684
16410,3692
16417,3699
16424,3705
16430,3709
16437,3712
16445,3716
16453,3719
16462,3722
16471,3724
16481,3726
16490,3727
16498,3728
16506,3728
16516,3729
16525,3728
16536,3728
16547,3727
16558,3725
16569,3724
16580,3722
16590,3719
16601,3717
16613,3713
16625,3709
16638,3705
16652,3700
16666,3694
16679,3688
16692,3682
16705,3676
16717,3670
16726,3664
16736,3658
16747,3652
16757,3645
16768,3638
16779,3630
16790,3622
16800,3615
16810,3607
16819,3599
16827,3592
16836,3584
16842,3578
16849,3571
16857,3563
16864,3555
16872,3546
16881,3536
16890,3525
16900,3513
16911,3500
16922,3486
16934,3471
16946,3455
16959,3438
16973,3420
16982,3408
16992,3395
17003,3380
17015,3365
17028,3348
17042,3329
17058,3308
17075,3286
17094,3261
17114,3234
17136,3205
17158,3176
17181,3146
17203,3116
17224,3089
17242,3065
17258,3045
17269,3030
17277,3019
17281,3014
17283,3011
" style="stroke:#000000;stroke-width:30;
stroke-linejoin:bevel; stroke-linecap:round;
"/>
<!-- Line -->
<polyline points="9520,3729
9522,3728
9527,3726
9534,3723
9543,3718
9554,3712
9566,3705
9582,3696
9601,3683
9624,3667
9644,3652
9661,3640
9673,3630
9681,3624
9685,3620
9688,3618
9691,3615
9696,3610
9705,3603
9719,3591
9739,3575
9763,3555
9785,3537
9804,3521
9820,3508
9831,3499
9839,3492
9845,3487
9850,3484
9855,3480
9860,3475
9868,3469
9879,3459
9894,3446
9912,3431
9932,3413
9954,3393
9970,3378
9981,3368
9987,3362
9990,3360
9991,3359
9991,3358
9993,3355
9999,3350
10008,3340
10023,3325
10041,3306
10060,3286
10075,3270
10087,3257
10095,3248
10100,3243
10104,3238
10107,3234
10112,3229
10120,3220
10131,3208
10145,3192
10162,3173
10181,3152
10194,3137
10203,3128
10206,3124
10208,3122
10210,3121
10213,3117
10220,3109
10231,3096
10245,3079
10259,3062
10270,3047
10278,3036
10284,3027
10288,3020
10292,3013
10296,3006
10301,3000
10306,2994
10310,2993
10310,2998
10308,3005
10304,3013
10299,3020
10294,3027
10289,3035
10284,3045
10278,3058
10272,3075
10266,3096
10261,3117
10258,3134
10257,3145
10256,3151
10256,3155
10257,3159
10257,3165
10256,3176
10255,3193
10254,3215
10253,3236
10252,3252
10252,3261
10252,3266
10252,3268
10252,3270
10253,3275
10253,3284
10253,3300
10254,3321
10255,3342
10256,3359
10257,3370
10258,3376
10258,3380
10259,3384
10260,3390
10261,3401
10262,3417
10263,3437
10264,3460
10265,3476
10266,3483
10267,3486
10268,3489
10268,3495
10268,3509
10266,3528
10263,3547
10261,3559
10259,3565
10259,3567
10258,3569
10256,3574
10251,3585
10242,3602
10232,3618
10224,3629
10220,3635
10217,3638
10214,3641
10208,3647
10199,3656
10186,3670
10173,3683
10165,3691
10161,3695
10160,3697
10158,3699
10154,3702
10145,3708
10130,3715
10115,3721
10103,3725
10097,3726
10094,3727
10091,3727
10084,3727
10073,3728
10056,3729
10040,3729
10029,3729
10023,3730
10020,3731
10017,3732
10012,3731
10002,3727
9988,3718
9975,3706
9966,3698
9962,3693
9960,3690
9958,3687
9954,3680
9948,3665
9940,3641
9934,3619
9930,3598
9927,3578
9926,3560
9924,3543
9924,3527
9923,3514
9923,3506
9923,3503
9923,3502
" style="stroke:#000000;stroke-width:30;
stroke-linejoin:bevel; stroke-linecap:round;
"/>
<!-- Line -->
<polyline points="7268,3227
7268,3228
7267,3232
7264,3243
7259,3261
7253,3285
7246,3311
7239,3338
7232,3364
7226,3387
7221,3407
7216,3425
7212,3441
7209,3455
7206,3469
7202,3484
7199,3498
7196,3513
7193,3527
7190,3540
7188,3553
7186,3566
7184,3577
7182,3588
7181,3597
7180,3605
7180,3613
7179,3624
7179,3634
7179,3644
7180,3653
7182,3662
7184,3669
7186,3676
7190,3682
7194,3689
7201,3696
7209,3703
7219,3710
7229,3715
7240,3719
7249,3721
7260,3723
7271,3725
7284,3726
7297,3727
7310,3727
7323,3727
7336,3726
7346,3725
7356,3723
7367,3721
7379,3719
7391,3716
7404,3712
7416,3708
7428,3704
7440,3700
7452,3695
7462,3691
7472,3686
7483,3681
7495,3675
7507,3668
7519,3661
7532,3653
7544,3645
7557,3636
7569,3627
7581,3618
7592,3608
7602,3599
7613,3589
7623,3579
7634,3568
7646,3556
7658,3544
7669,3531
7681,3518
7693,3505
7704,3493
7714,3480
7724,3468
7734,3457
7743,3446
7752,3435
7761,3424
7771,3412
7780,3401
7789,3389
7799,3376
7809,3364
7819,3351
7829,3338
7838,3326
7847,3313
7857,3301
7866,3289
7875,3277
7884,3265
7894,3252
7904,3238
7914,3224
7925,3210
7936,3195
7947,3180
7959,3166
7970,3152
7980,3139
7990,3127
8000,3115
8008,3105
8017,3096
8028,3084
8039,3074
8050,3064
8061,3055
8071,3048
8081,3041
8091,3036
8099,3031
8107,3028
8114,3025
8123,3021
8132,3018
8141,3016
8150,3013
8159,3011
8168,3010
8176,3009
8184,3009
8192,3008
8200,3009
8209,3009
8218,3011
8226,3013
8234,3015
8241,3018
8247,3022
8254,3028
8261,3035
8267,3045
8271,3055
8274,3067
8276,3078
8276,3086
8275,3096
8274,3107
8272,3118
8270,3130
8267,3142
8264,3154
8262,3166
8260,3174
8258,3182
8255,3191
8253,3201
8250,3212
8246,3224
8243,3237
8239,3250
8235,3264
8230,3279
8225,3294
8220,3309
8215,3324
8210,3339
8204,3356
8198,3374
8192,3392
8185,3411
8178,3431
8171,3450
8165,3469
8159,3487
8153,3504
8148,3519
8143,3534
8139,3547
8134,3563
8130,3578
8126,3591
8123,3604
8121,3615
8120,3625
8119,3633
8118,3640
8119,3646
8119,3651
8120,3660
8122,3668
8125,3677
8129,3684
8134,3691
8139,3697
8145,3702
8152,3708
8160,3712
8169,3717
8178,3720
8186,3723
8195,3724
8204,3725
8214,3725
8224,3725
8234,3723
8244,3721
8252,3718
8261,3715
8270,3711
8280,3706
8290,3700
8300,3695
8309,3688
8318,3682
8325,3677
8332,3671
8339,3664
8346,3657
8354,3649
8361,3641
8368,3633
8374,3624
8381,3616
8387,3607
8392,3598
8398,3589
8404,3578
8411,3567
8417,3555
8423,3544
8429,3532
8435,3520
8440,3509
8445,3498
8450,3488
8455,3476
8460,3464
8465,3452
8470,3440
8475,3427
8480,3415
8484,3403
8489,3392
8493,3381
8497,3371
8501,3360
8505,3348
8509,3336
8513,3324
8517,3312
8521,3300
8524,3289
8527,3279
8530,3268
8533,3258
8536,3248
8539,3237
8541,3225
8544,3214
8546,3202
8548,3192
8550,3181
8552,3172
8554,3163
8555,3152
8557,3142
8559,3130
8560,3119
8561,3108
8562,3098
8562,3089
8563,3080
8563,3071
8562,3062
8562,3053
8561,3043
8560,3035
8558,3027
8556,3020
8554,3015
8551,3009
8546,3003
8541,2999
8536,2996
8531,2995
8526,2994
8521,2993
8517,2993
8512,2994
8508,2996
8503,2999
8500,3002
8496,3007
8491,3012
8487,3019
8483,3027
8480,3035
8478,3043
8476,3051
8475,3061
8474,3071
8474,3081
8475,3091
8476,3099
8478,3107
8480,3116
8483,3124
8487,3132
8491,3139
8495,3145
8500,3151
8506,3158
8514,3164
8523,3170
8533,3175
8543,3180
8552,3184
8562,3187
8574,3190
8586,3193
8600,3196
8614,3198
8627,3200
8640,3202
8651,3203
8662,3204
8674,3205
8687,3205
8700,3206
8713,3206
8726,3206
8738,3207
8750,3207
8761,3207
8772,3207
8783,3208
8795,3208
8807,3208
8820,3208
8833,3209
8845,3208
8858,3208
8870,3208
8881,3207
8893,3206
8906,3205
8919,3203
8934,3201
8948,3199
8962,3196
8976,3194
8988,3191
9000,3188
9011,3185
9022,3181
9032,3178
9042,3174
9052,3170
9062,3165
9071,3160
9080,3155
9088,3150
9095,3145
9102,3140
9109,3133
9117,3126
9125,3118
9132,3110
9139,3102
9145,3095
9150,3088
9155,3082
9161,3074
9166,3067
9171,3060
9176,3053
9180,3047
9184,3041
9188,3035
9192,3028
9198,3018
9205,3007
9209,3000
9210,2999
" style="stroke:#000000;stroke-width:30;
stroke-linejoin:bevel; stroke-linecap:round;
"/>
<!-- Line -->
<polyline points="7210,2576
7209,2576
7204,2577
7194,2578
7183,2581
7171,2587
7157,2596
7146,2607
7141,2614
7139,2617
7138,2620
7135,2628
7130,2644
7127,2661
7126,2670
7125,2674
7126,2679
7127,2688
7130,2706
7135,2723
7138,2733
7141,2737
7143,2741
7148,2749
7157,2762
7164,2770
7169,2775
7170,2776
7171,2776
7174,2777
7180,2779
7192,2783
7206,2786
7216,2789
7223,2791
7227,2792
7232,2793
7239,2794
7250,2794
7266,2792
7278,2789
7288,2786
7294,2785
7297,2784
7300,2783
7302,2782
7305,2780
7309,2776
7316,2769
7323,2759
7330,2744
7334,2733
7336,2725
7337,2719
7337,2714
7337,2706
7337,2693
7337,2676
7334,2657
7332,2647
7331,2644
7329,2641
7324,2634
7314,2620
7302,2608
7295,2602
7291,2600
7287,2598
7279,2594
7263,2587
7246,2581
7233,2578
7221,2577
7213,2576
7208,2576
7207,2576
" style="stroke:#000000;stroke-width:30;
stroke-linejoin:bevel; stroke-linecap:round;
"/>
<!-- Line -->
<polyline points="7026,2996
7026,2997
7025,3001
7022,3011
7018,3026
7013,3044
7008,3063
7003,3082
6999,3099
6995,3113
6992,3127
6989,3139
6986,3151
6982,3163
6979,3176
6976,3189
6973,3202
6969,3216
6966,3230
6963,3244
6959,3258
6956,3271
6953,3284
6950,3295
6947,3307
6943,3320
6940,3334
6936,3347
6932,3362
6928,3376
6924,3390
6920,3404
6916,3417
6913,3429
6910,3440
6907,3452
6904,3463
6901,3475
6898,3488
6895,3500
6892,3512
6889,3524
6887,3535
6885,3544
6883,3554
6880,3564
6878,3575
6876,3586
6874,3597
6872,3608
6871,3618
6870,3627
6870,3637
6871,3646
6872,3655
6874,3665
6876,3675
6880,3685
6884,3694
6889,3701
6895,3708
6901,3713
6908,3718
6917,3722
6927,3725
6938,3727
6948,3728
6959,3728
6969,3727
6977,3725
6986,3723
6995,3720
7005,3716
7014,3711
7024,3706
7033,3700
7042,3694
7050,3687
7058,3680
7066,3672
7073,3663
7081,3653
7089,3642
7097,3630
7105,3618
7113,3605
7121,3592
7128,3578
7135,3565
7141,3553
7147,3541
7154,3528
7160,3514
7167,3500
7174,3485
7181,3470
7187,3455
7193,3440
7199,3426
7205,3413
7210,3400
7214,3387
7219,3374
7224,3361
7228,3347
7233,3333
7238,3318
7243,3303
7247,3289
7252,3274
7256,3259
7261,3245
7266,3231
7270,3218
7274,3204
7279,3190
7284,3173
7290,3155
7297,3134
7304,3111
7312,3087
7320,3064
7327,3043
7332,3027
7335,3018
7337,3014
7337,3013
" style="stroke:#000000;stroke-width:30;
stroke-linejoin:bevel; stroke-linecap:round;
"/>
<!-- Line -->
<polyline points="6143,2996
6143,2998
6144,3006
6145,3019
6146,3030
6148,3039
6150,3046
6151,3051
6153,3055
6156,3060
6159,3064
6163,3068
6167,3072
6172,3075
6177,3077
6184,3080
6193,3082
6203,3083
6213,3084
6223,3084
6231,3083
6239,3081
6247,3079
6255,3076
6262,3071
6269,3066
6274,3061
6279,3054
6285,3045
6291,3033
6298,3019
6302,3010
6303,3008
" style="stroke:#000000;stroke-width:30;
stroke-linejoin:bevel; stroke-linecap:round;
"/>
<!-- Line -->
<polyline points="2971,3185
2971,3184
2973,3179
2977,3170
2982,3159
2987,3149
2991,3140
2995,3132
2998,3126
3002,3118
3007,3111
3013,3103
3019,3095
3026,3088
3033,3080
3041,3074
3049,3068
3055,3063
3063,3058
3072,3054
3081,3049
3091,3045
3101,3040
3111,3037
3122,3033
3131,3030
3141,3027
3153,3024
3165,3022
3178,3019
3192,3018
3204,3017
3216,3016
3226,3017
3235,3018
3242,3020
3248,3023
3254,3026
3260,3030
3265,3034
3269,3039
3273,3045
3276,3051
3279,3057
3282,3064
3283,3071
3285,3079
3286,3088
3287,3097
3288,3108
3288,3119
3288,3130
3288,3141
3287,3153
3286,3164
3285,3176
3283,3188
3281,3201
3279,3216
3276,3231
3273,3245
3270,3260
3267,3274
3264,3287
3260,3300
3257,3312
3253,3325
3248,3338
3243,3351
3239,3365
3233,3378
3228,3391
3224,3403
3219,3414
3215,3424
3210,3434
3205,3445
3201,3456
3196,3467
3191,3478
3186,3489
3181,3499
3177,3509
3173,3518
3169,3527
3165,3538
3160,3550
3156,3562
3152,3574
3148,3585
3144,3596
3142,3606
3140,3615
3138,3624
3137,3633
3136,3641
3135,3650
3135,3659
3136,3666
3137,3674
3138,3680
3140,3689
3143,3698
3148,3706
3153,3714
3159,3721
3166,3727
3172,3730
3178,3733
3186,3736
3195,3738
3203,3740
3212,3742
3220,3743
3229,3744
3237,3745
3245,3746
3254,3746
3264,3746
3275,3746
3285,3746
3296,3745
3306,3744
3315,3742
3325,3741
3336,3738
3348,3736
3360,3732
3372,3729
3385,3725
3396,3721
3408,3716
3419,3712
3429,3707
3440,3702
3451,3696
3463,3689
3475,3682
3487,3675
3499,3667
3510,3659
3520,3651
3530,3644
3539,3637
3547,3629
3556,3622
3565,3613
3575,3605
3584,3596
3594,3586
3603,3577
3612,3568
3620,3560
3628,3551
3636,3543
3645,3533
3654,3523
3663,3512
3673,3501
3682,3490
3692,3478
3701,3467
3710,3456
3718,3446
3726,3436
3734,3426
3742,3415
3751,3404
3760,3393
3768,3381
3777,3369
3786,3358
3794,3348
3801,3338
3808,3329
3815,3320
3821,3311
3828,3301
3836,3291
3843,3282
3850,3272
3857,3262
3863,3253
3869,3244
3876,3236
3882,3227
3888,3218
3895,3208
3902,3198
3909,3187
3916,3177
3923,3167
3930,3158
3935,3149
3941,3141
3948,3131
3954,3122
3961,3112
3968,3102
3975,3093
3982,3085
3988,3078
3995,3071
4001,3065
4008,3058
4016,3052
4024,3046
4033,3040
4042,3035
4050,3030
4059,3025
4068,3021
4078,3017
4089,3013
4101,3009
4112,3005
4124,3001
4135,2998
4145,2996
4155,2993
4166,2991
4177,2988
4188,2986
4199,2985
4210,2983
4219,2983
4228,2982
4236,2982
4245,2982
4255,2983
4266,2984
4278,2985
4288,2986
4293,2987
4294,2987
" style="stroke:#000000;stroke-width:30;
stroke-linejoin:bevel; stroke-linecap:round;
"/>
<!-- Line -->
<polyline points="2312,3005
2311,3005
2304,3006
2294,3007
2285,3009
2277,3012
2271,3016
2267,3021
2262,3026
2258,3033
2253,3041
2249,3049
2246,3057
2243,3065
2240,3073
2238,3083
2236,3094
2235,3105
2235,3116
2235,3126
2237,3136
2239,3144
2242,3153
2246,3162
2252,3171
2257,3179
2264,3187
2269,3192
2275,3197
2282,3203
2290,3208
2298,3213
2307,3218
2316,3221
2325,3225
2335,3227
2346,3230
2357,3232
2370,3233
2383,3234
2395,3234
2407,3234
2418,3234
2428,3232
2439,3231
2450,3229
2462,3226
2473,3223
2484,3219
2493,3216
2503,3213
2512,3209
2521,3205
2531,3200
2540,3194
2550,3189
2559,3183
2567,3177
2575,3170
2582,3164
2590,3156
2598,3148
2606,3139
2614,3130
2622,3122
2629,3114
2637,3106
2644,3099
2652,3092
2661,3084
2671,3077
2681,3069
2692,3062
2702,3056
2713,3050
2722,3045
2731,3040
2742,3035
2753,3030
2764,3025
2775,3020
2786,3016
2796,3012
2806,3009
2815,3006
2825,3003
2836,3000
2846,2998
2856,2996
2866,2995
2876,2995
2885,2996
2893,2997
2901,2998
2910,3000
2919,3003
2928,3007
2936,3011
2944,3016
2950,3022
2956,3027
2960,3034
2964,3041
2967,3049
2970,3058
2972,3068
2973,3078
2974,3088
2975,3097
2975,3107
2975,3118
2975,3130
2975,3142
2974,3155
2972,3169
2971,3181
2969,3194
2967,3205
2965,3216
2963,3228
2960,3241
2957,3255
2954,3268
2950,3282
2947,3295
2943,3308
2940,3321
2936,3333
2932,3347
2928,3360
2924,3375
2919,3390
2915,3404
2910,3419
2906,3432
2902,3445
2898,3457
2894,3469
2890,3481
2886,3494
2882,3507
2878,3521
2874,3534
2869,3548
2865,3561
2861,3574
2858,3587
2854,3598
2851,3610
2847,3624
2843,3639
2838,3656
2832,3675
2826,3696
2821,3715
2816,3731
2813,3742
2812,3746
2812,3747
" style="stroke:#000000;stroke-width:30;
stroke-linejoin:bevel; stroke-linecap:round;
"/>
<!-- Line -->
<polyline points="3915,3173
3914,3174
3911,3181
3905,3195
3898,3212
3891,3227
3886,3241
3881,3252
3876,3262
3872,3271
3868,3279
3864,3289
3859,3298
3855,3308
3850,3319
3846,3329
3842,3339
3839,3348
3835,3358
3832,3368
3829,3379
3826,3390
3823,3402
3820,3414
3817,3427
3814,3439
3812,3451
3809,3462
3807,3473
3805,3483
3803,3494
3801,3505
3800,3517
3798,3529
3797,3540
3795,3551
3795,3561
3794,3570
3794,3579
3794,3590
3795,3601
3796,3612
3798,3623
3800,3633
3802,3642
3804,3651
3806,3659
3809,3668
3813,3677
3817,3686
3821,3694
3826,3700
3832,3706
3838,3710
3845,3714
3854,3717
3863,3719
3873,3720
3883,3720
3890,3719
3898,3718
3907,3716
3916,3714
3926,3711
3935,3708
3943,3704
3951,3701
3959,3697
3967,3692
3975,3686
3984,3680
3992,3674
4000,3668
4008,3661
4014,3655
4021,3648
4028,3640
4035,3632
4042,3623
4050,3613
4057,3603
4064,3593
4071,3583
4076,3575
4081,3566
4087,3556
4094,3545
4100,3534
4106,3522
4112,3511
4118,3500
4124,3489
4129,3478
4134,3467
4139,3456
4145,3444
4150,3432
4155,3419
4161,3406
4166,3393
4171,3381
4175,3369
4179,3357
4183,3345
4187,3333
4192,3320
4196,3307
4200,3293
4204,3279
4208,3266
4212,3253
4216,3241
4219,3230
4223,3218
4226,3207
4230,3195
4234,3183
4238,3170
4241,3158
4245,3146
4249,3134
4252,3123
4256,3112
4259,3101
4263,3089
4267,3076
4272,3061
4277,3043
4283,3025
4288,3008
4292,2996
4294,2990
4294,2989
" style="stroke:#000000;stroke-width:30;
stroke-linejoin:bevel; stroke-linecap:round;
"/>
<!-- Line -->
<polyline points="4199,3291
4199,3292
4197,3298
4194,3310
4189,3328
4184,3347
4180,3365
4175,3381
4172,3395
4168,3407
4165,3419
4161,3430
4158,3442
4154,3454
4149,3467
4145,3481
4141,3495
4136,3509
4132,3523
4128,3537
4124,3551
4120,3564
4116,3577
4112,3591
4108,3606
4104,3623
4100,3639
4095,3656
4091,3673
4087,3690
4082,3706
4078,3721
4074,3737
4070,3752
4066,3767
4062,3783
4058,3799
4053,3816
4048,3833
4044,3850
4040,3866
4036,3882
4032,3897
4028,3911
4025,3925
4022,3939
4019,3952
4016,3967
4013,3981
4010,3996
4007,4011
4004,4026
4001,4041
3998,4055
3995,4068
3992,4081
3990,4094
3987,4107
3984,4120
3980,4133
3977,4147
3973,4162
3970,4176
3966,4190
3962,4203
3959,4216
3955,4228
3952,4239
3948,4250
3944,4261
3940,4273
3936,4284
3931,4296
3926,4307
3921,4317
3916,4327
3911,4336
3906,4344
3901,4351
3894,4360
3886,4369
3877,4378
3868,4387
3858,4395
3849,4403
3839,4410
3830,4416
3821,4421
3811,4426
3800,4431
3790,4436
3779,4440
3770,4443
3761,4446
3753,4448
3746,4449
3739,4450
3732,4451
3726,4451
3720,4450
3715,4448
3710,4446
3706,4443
3702,4438
3698,4431
3694,4423
3691,4414
3689,4404
3688,4395
3687,4387
3687,4379
3687,4370
3688,4360
3689,4350
3690,4340
3691,4330
3693,4321
3694,4311
3696,4300
3698,4288
3701,4276
3704,4263
3706,4251
3709,4239
3712,4227
3714,4218
3716,4208
3719,4197
3722,4186
3725,4175
3729,4163
3732,4151
3736,4140
3740,4129
3745,4118
3749,4107
3754,4095
3760,4083
3767,4070
3775,4057
3782,4043
3790,4030
3799,4017
3807,4004
3815,3993
3822,3983
3830,3973
3838,3962
3847,3951
3856,3940
3866,3929
3875,3918
3885,3907
3895,3897
3904,3887
3913,3877
3922,3868
3931,3859
3940,3850
3949,3840
3960,3831
3970,3821
3981,3811
3992,3801
4003,3791
4013,3782
4024,3773
4034,3765
4045,3756
4055,3748
4066,3740
4077,3731
4090,3722
4102,3712
4115,3702
4129,3693
4142,3683
4154,3674
4167,3665
4179,3656
4191,3647
4202,3638
4214,3630
4227,3620
4240,3610
4253,3600
4267,3590
4280,3580
4294,3570
4307,3561
4319,3551
4331,3543
4342,3534
4353,3526
4365,3518
4377,3509
4389,3500
4402,3491
4415,3482
4428,3472
4441,3463
4453,3454
4465,3445
4477,3436
4489,3427
4500,3418
4512,3409
4524,3399
4537,3388
4551,3377
4564,3366
4578,3355
4591,3344
4603,3334
4616,3324
4627,3314
4638,3305
4649,3296
4660,3287
4671,3277
4682,3268
4694,3258
4706,3248
4718,3237
4729,3227
4740,3217
4751,3208
4761,3198
4771,3188
4780,3178
4791,3168
4801,3157
4812,3145
4823,3133
4835,3120
4846,3107
4858,3093
4869,3081
4879,3068
4889,3056
4899,3044
4907,3034
4916,3023
4924,3012
4933,3001
4942,2989
4952,2977
4961,2965
4970,2952
4979,2940
4988,2929
4996,2917
5003,2907
5011,2896
5018,2886
5026,2874
5034,2862
5041,2850
5050,2838
5058,2825
5065,2812
5073,2800
5081,2788
5087,2776
5094,2766
5100,2756
5106,2747
5112,2736
5119,2725
5125,2714
5132,2703
5139,2692
5145,2681
5151,2671
5157,2661
5163,2652
5168,2643
5173,2634
5178,2624
5183,2614
5189,2604
5194,2593
5200,2583
5205,2572
5210,2563
5214,2553
5219,2544
5223,2535
5228,2526
5232,2516
5237,2506
5241,2496
5246,2485
5250,2475
5254,2465
5257,2456
5260,2447
5264,2436
5267,2424
5270,2412
5274,2399
5276,2387
5279,2376
5280,2366
5282,2358
5284,2347
5285,2338
5286,2328
5286,2320
5285,2313
5284,2307
5283,2302
5281,2297
5279,2293
5276,2288
5273,2284
5270,2281
5266,2278
5262,2276
5256,2274
5249,2274
5241,2274
5232,2275
5222,2277
5213,2280
5206,2282
5198,2285
5189,2288
5180,2291
5171,2296
5162,2300
5154,2305
5147,2311
5140,2316
5133,2323
5125,2331
5118,2340
5111,2349
5105,2358
5099,2367
5094,2376
5088,2384
5083,2394
5077,2404
5072,2416
5066,2428
5061,2440
5056,2452
5052,2465
5048,2476
5044,2487
5040,2500
5036,2514
5032,2528
5028,2543
5024,2558
5020,2573
5017,2587
5013,2601
5011,2611
5008,2621
5006,2633
5003,2645
5000,2658
4996,2672
4992,2688
4988,2705
4984,2724
4979,2743
4974,2763
4968,2785
4962,2808
4956,2832
4952,2850
4947,2869
4941,2890
4936,2912
4930,2935
4924,2959
4917,2984
4910,3010
4904,3036
4897,3063
4890,3090
4883,3117
4876,3143
4869,3168
4862,3193
4856,3216
4850,3239
4845,3260
4839,3280
4834,3299
4827,3324
4821,3348
4815,3371
4809,3393
4803,3414
4798,3434
4793,3452
4788,3469
4784,3485
4780,3499
4777,3511
4774,3522
4772,3532
4770,3541
4767,3555
4764,3569
4762,3581
4761,3593
4760,3604
4760,3614
4759,3622
4760,3630
4760,3639
4761,3649
4762,3659
4764,3668
4766,3677
4769,3684
4772,3690
4776,3696
4782,3702
4788,3707
4795,3711
4802,3715
4810,3717
4819,3720
4829,3722
4840,3723
4851,3725
4863,3726
4871,3726
4880,3726
4890,3726
4901,3726
4912,3726
4922,3725
4933,3724
4942,3722
4952,3720
4962,3718
4973,3714
4985,3711
4997,3707
5008,3702
5020,3698
5031,3693
5040,3689
5049,3685
5059,3680
5070,3675
5080,3670
5091,3664
5101,3658
5111,3653
5120,3647
5129,3642
5137,3636
5145,3630
5153,3623
5162,3617
5171,3609
5179,3602
5188,3595
5196,3588
5203,3581
5211,3574
5219,3567
5227,3560
5236,3552
5245,3543
5255,3534
5265,3525
5274,3516
5284,3506
5293,3497
5302,3487
5310,3479
5318,3470
5326,3460
5335,3450
5344,3439
5353,3428
5362,3416
5371,3405
5380,3394
5388,3382
5396,3372
5403,3361
5411,3350
5418,3339
5426,3328
5434,3316
5442,3303
5450,3291
5458,3279
5466,3267
5473,3255
5480,3244
5487,3234
5493,3224
5501,3212
5508,3201
5516,3189
5524,3177
5532,3165
5539,3153
5545,3143
5551,3133
5556,3124
5560,3116
5564,3106
5568,3096
5571,3086
5573,3077
5574,3068
5574,3061
5573,3054
5573,3048
5570,3040
5567,3032
5563,3025
5558,3019
5553,3014
5548,3009
5542,3006
5535,3003
5527,3000
5519,2998
5511,2996
5504,2995
5496,2993
5489,2993
5480,2992
5472,2992
5464,2993
5457,2994
5450,2996
5443,2998
5436,3002
5429,3006
5422,3010
5417,3015
5411,3020
5406,3027
5401,3034
5396,3043
5392,3052
5388,3061
5386,3068
5384,3077
5382,3086
5380,3096
5378,3106
5376,3116
5374,3126
5373,3136
5371,3145
5369,3155
5367,3166
5365,3177
5363,3188
5360,3198
5358,3209
5356,3218
5354,3228
5352,3238
5349,3250
5347,3262
5344,3274
5342,3287
5339,3299
5337,3312
5334,3322
5332,3333
5330,3346
5327,3359
5324,3373
5321,3387
5317,3401
5314,3414
5311,3427
5308,3440
5304,3452
5300,3465
5296,3479
5292,3493
5288,3507
5284,3521
5280,3534
5276,3546
5273,3557
5270,3568
5267,3580
5265,3592
5263,3605
5261,3616
5260,3628
5260,3638
5260,3647
5261,3655
5263,3665
5266,3674
5270,3684
5274,3692
5279,3699
5284,3705
5289,3710
5295,3715
5302,3719
5309,3723
5317,3726
5324,3729
5330,3730
5337,3731
5344,3732
5353,3733
5362,3733
5371,3733
5380,3732
5390,3732
5398,3731
5407,3730
5417,3729
5427,3727
5438,3725
5449,3723
5461,3721
5472,3719
5482,3716
5492,3713
5503,3710
5513,3707
5524,3703
5536,3699
5548,3694
5559,3689
5571,3683
5582,3677
5592,3672
5601,3666
5611,3659
5621,3652
5631,3645
5641,3636
5651,3628
5661,3619
5670,3610
5679,3601
5687,3593
5695,3585
5702,3577
5709,3569
5717,3561
5725,3552
5733,3542
5740,3533
5748,3523
5756,3514
5763,3505
5771,3496
5777,3488
5784,3480
5791,3471
5798,3462
5806,3452
5815,3441
5823,3431
5832,3420
5840,3410
5848,3400
5855,3390
5863,3381
5870,3371
5878,3361
5886,3350
5894,3340
5902,3329
5911,3317
5919,3306
5927,3295
5935,3285
5942,3275
5949,3266
5955,3258
5963,3248
5970,3238
5978,3228
5986,3218
5993,3208
6001,3198
6009,3189
6016,3180
6022,3171
6029,3163
6036,3154
6042,3146
6050,3137
6057,3127
6064,3118
6071,3108
6078,3099
6084,3091
6090,3083
6095,3075
6101,3067
6107,3058
6113,3047
6119,3036
6126,3024
6132,3014
6135,3009
6135,3008
" style="stroke:#000000;stroke-width:30;
stroke-linejoin:bevel; stroke-linecap:round;
"/>
<!-- Line -->
<polyline points="1933,3206
1933,3207
1931,3212
1927,3222
1922,3236
1916,3252
1911,3267
1906,3280
1902,3292
1899,3302
1895,3312
1892,3323
1888,3333
1885,3345
1881,3357
1877,3369
1874,3382
1871,3394
1867,3405
1865,3416
1862,3427
1860,3438
1857,3448
1855,3460
1853,3472
1851,3484
1849,3495
1847,3507
1846,3518
1845,3528
1844,3538
1843,3548
1843,3558
1842,3568
1842,3579
1842,3590
1842,3600
1842,3611
1842,3620
1843,3629
1844,3638
1844,3648
1846,3658
1847,3669
1849,3679
1852,3689
1854,3697
1857,3705
1860,3711
1864,3717
1868,3721
1873,3726
1878,3730
1884,3733
1891,3735
1897,3736
1905,3738
1912,3738
1921,3738
1930,3738
1941,3737
1952,3735
1962,3733
1972,3730
1982,3727
1991,3722
2001,3717
2011,3710
2021,3703
2031,3694
2041,3685
2050,3676
2059,3667
2065,3659
2072,3651
2079,3641
2086,3631
2094,3621
2101,3610
2108,3599
2114,3588
2120,3578
2126,3568
2132,3557
2137,3547
2143,3535
2149,3523
2156,3510
2162,3497
2167,3484
2173,3472
2178,3460
2183,3448
2187,3438
2191,3427
2195,3416
2199,3405
2204,3393
2208,3380
2213,3367
2217,3355
2221,3342
2226,3330
2230,3319
2234,3307
2238,3295
2242,3283
2247,3271
2251,3258
2256,3244
2261,3230
2266,3216
2270,3203
2275,3190
2279,3177
2282,3165
2286,3154
2289,3140
2293,3126
2297,3111
2301,3094
2305,3074
2310,3053
2314,3035
2317,3021
2318,3015
2318,3014
" style="stroke:#000000;stroke-width:30;
stroke-linejoin:bevel; stroke-linecap:round;
"/>
<!-- Line -->
<polyline points="883,2493
883,2492
886,2487
893,2477
901,2462
911,2446
920,2432
929,2419
936,2408
944,2398
951,2389
958,2381
966,2372
975,2364
985,2356
995,2347
1006,2339
1017,2332
1028,2325
1039,2320
1051,2314
1060,2310
1070,2306
1081,2303
1093,2299
1105,2296
1117,2293
1130,2290
1143,2287
1156,2285
1168,2284
1180,2282
1192,2282
1203,2281
1215,2280
1228,2280
1241,2280
1254,2281
1268,2282
1281,2282
1294,2284
1307,2285
1318,2286
1330,2288
1340,2290
1353,2292
1365,2294
1378,2297
1391,2300
1403,2303
1415,2307
1427,2310
1438,2314
1448,2317
1457,2321
1468,2325
1479,2330
1490,2336
1501,2341
1512,2347
1523,2352
1532,2358
1541,2363
1549,2367
1558,2372
1568,2378
1578,2383
1587,2388
1597,2392
1606,2396
1615,2400
1623,2403
1633,2406
1643,2408
1653,2410
1664,2412
1674,2414
1684,2414
1693,2415
1702,2415
1712,2415
1722,2414
1732,2413
1742,2412
1752,2410
1760,2408
1768,2406
1778,2403
1787,2398
1796,2393
1804,2386
1810,2379
1815,2372
1818,2363
1820,2353
1820,2343
1819,2332
1816,2322
1812,2314
1807,2309
1802,2304
1795,2300
1787,2296
1778,2292
1769,2290
1760,2288
1751,2288
1742,2287
1732,2288
1721,2289
1710,2290
1698,2292
1688,2295
1678,2298
1668,2300
1659,2303
1651,2307
1641,2311
1632,2315
1623,2320
1615,2325
1607,2331
1600,2337
1593,2343
1585,2350
1577,2358
1568,2368
1560,2378
1551,2388
1543,2399
1534,2410
1529,2418
1522,2426
1516,2435
1509,2444
1502,2455
1495,2466
1487,2477
1480,2488
1473,2499
1466,2510
1460,2521
1454,2532
1448,2543
1442,2554
1435,2566
1429,2579
1423,2593
1416,2607
1409,2621
1403,2635
1397,2649
1391,2663
1386,2676
1381,2689
1376,2700
1371,2712
1367,2724
1362,2737
1356,2750
1351,2764
1346,2778
1341,2792
1336,2807
1330,2820
1325,2834
1321,2847
1316,2860
1312,2873
1307,2886
1302,2900
1297,2914
1292,2928
1287,2943
1282,2958
1277,2974
1272,2989
1266,3004
1262,3019
1257,3033
1252,3046
1248,3059
1244,3072
1239,3086
1234,3100
1229,3115
1224,3130
1219,3145
1214,3161
1209,3176
1204,3191
1199,3205
1195,3218
1190,3231
1186,3243
1182,3256
1177,3268
1173,3281
1168,3295
1162,3308
1157,3322
1152,3336
1147,3349
1141,3362
1136,3374
1131,3386
1127,3397
1122,3408
1116,3419
1111,3430
1105,3442
1100,3454
1093,3465
1087,3477
1081,3488
1075,3499
1069,3509
1063,3519
1058,3528
1050,3539
1043,3550
1035,3561
1027,3572
1019,3584
1010,3595
1002,3605
994,3615
987,3624
980,3632
973,3640
966,3648
959,3656
952,3664
944,3672
936,3679
928,3686
920,3692
913,3697
905,3702
894,3708
883,3713
870,3718
857,3722
844,3725
832,3727
820,3729
810,3729
802,3729
794,3728
786,3726
779,3724
771,3721
765,3718
759,3714
753,3710
749,3705
745,3700
741,3693
738,3685
736,3676
734,3667
734,3657
734,3648
735,3639
736,3631
739,3623
741,3615
745,3607
750,3600
755,3593
760,3587
766,3582
772,3578
778,3574
785,3571
793,3569
802,3567
811,3566
819,3565
827,3564
836,3565
844,3565
852,3565
861,3567
870,3568
880,3570
888,3572
897,3574
904,3576
914,3579
925,3584
935,3588
945,3593
954,3597
962,3601
970,3605
977,3609
986,3613
994,3618
1003,3623
1012,3628
1019,3632
1027,3636
1036,3642
1046,3647
1056,3653
1066,3659
1076,3664
1085,3669
1093,3674
1102,3678
1112,3683
1122,3688
1132,3693
1143,3697
1153,3701
1164,3704
1173,3707
1183,3709
1193,3712
1205,3715
1216,3717
1229,3720
1241,3722
1252,3724
1263,3726
1274,3727
1285,3728
1296,3729
1307,3731
1319,3731
1330,3732
1342,3733
1353,3733
1364,3733
1374,3733
1384,3733
1393,3732
1403,3731
1413,3730
1424,3729
1434,3727
1445,3724
1455,3722
1465,3718
1475,3715
1484,3711
1493,3707
1502,3702
1512,3696
1523,3689
1534,3682
1544,3674
1555,3666
1565,3658
1575,3649
1584,3641
1592,3634
1599,3626
1608,3618
1616,3609
1625,3600
1634,3591
1643,3581
1652,3571
1661,3561
1669,3551
1678,3542
1686,3533
1694,3523
1702,3513
1711,3503
1720,3492
1729,3481
1738,3469
1748,3458
1756,3447
1765,3436
1773,3426
1780,3417
1788,3408
1796,3397
1804,3386
1812,3375
1820,3364
1829,3353
1837,3342
1845,3331
1852,3321
1860,3311
1867,3301
1874,3291
1881,3281
1889,3270
1897,3258
1905,3246
1913,3234
1921,3223
1928,3212
1935,3202
1942,3193
1948,3183
1955,3174
1962,3164
1969,3155
1976,3145
1983,3136
1990,3127
1997,3119
2003,3111
2010,3104
2018,3096
2026,3087
2036,3078
2046,3070
2056,3062
2066,3054
2076,3048
2086,3042
2095,3037
2105,3032
2116,3027
2127,3022
2138,3018
2148,3015
2158,3012
2167,3009
2176,3007
2185,3006
2194,3004
2204,3003
2214,3002
2223,3001
2232,3001
2241,3001
2249,3001
2259,3001
2271,3002
2285,3003
2300,3004
2313,3004
2320,3005
2321,3005
" style="stroke:#000000;stroke-width:30;
stroke-linejoin:bevel; stroke-linecap:round;
"/>
<!-- Line -->
<polyline points="1395,1833
1395,1834
1394,1838
1393,1849
1392,1865
1390,1884
1387,1905
1386,1924
1384,1941
1382,1955
1381,1968
1380,1979
1379,1990
1378,2002
1377,2013
1376,2025
1376,2036
1376,2047
1376,2058
1377,2067
1378,2076
1379,2084
1381,2092
1385,2100
1389,2109
1395,2118
1402,2126
1409,2133
1418,2140
1427,2145
1436,2149
1444,2151
1453,2153
1462,2155
1472,2156
1483,2156
1495,2155
1506,2154
1517,2152
1528,2150
1538,2147
1549,2143
1560,2138
1572,2133
1584,2127
1596,2120
1609,2112
1621,2105
1633,2097
1644,2089
1655,2082
1666,2074
1677,2065
1689,2056
1701,2047
1713,2038
1725,2028
1736,2019
1747,2011
1756,2003
1765,1995
1774,1988
1782,1980
1791,1973
1799,1965
1808,1958
1816,1950
1824,1942
1831,1935
1839,1928
1846,1921
1853,1914
1860,1906
1868,1897
1878,1886
1889,1874
1901,1861
1912,1849
1920,1841
1923,1837
1924,1836
" style="stroke:#000000;stroke-width:30;
stroke-linejoin:bevel; stroke-linecap:round;
"/>
<!-- Line -->
<polyline points="6303,3008
6303,3009
6302,3014
6300,3024
6297,3039
6294,3055
6290,3071
6288,3084
6285,3096
6283,3106
6280,3116
6278,3125
6275,3135
6272,3146
6269,3157
6266,3168
6262,3180
6259,3191
6256,3202
6252,3213
6249,3224
6246,3235
6243,3247
6239,3260
6235,3274
6231,3288
6227,3302
6223,3317
6219,3330
6216,3344
6212,3356
6208,3369
6204,3382
6200,3396
6196,3411
6192,3425
6187,3440
6183,3453
6180,3466
6176,3478
6173,3490
6170,3501
6166,3512
6163,3523
6160,3535
6157,3546
6155,3557
6152,3567
6150,3576
6148,3585
6147,3593
6145,3602
6143,3612
6142,3621
6141,3630
6141,3639
6141,3648
6141,3655
6142,3662
6143,3671
6146,3681
6149,3690
6154,3699
6160,3707
6166,3713
6172,3718
6179,3722
6187,3726
6195,3729
6205,3732
6215,3735
6225,3736
6235,3737
6243,3737
6252,3737
6262,3737
6273,3736
6284,3735
6296,3733
6307,3731
6319,3729
6330,3726
6341,3724
6353,3721
6365,3717
6378,3713
6392,3709
6406,3704
6420,3698
6434,3692
6447,3686
6459,3680
6471,3674
6481,3668
6490,3662
6500,3655
6511,3648
6521,3640
6531,3632
6542,3623
6551,3615
6561,3607
6569,3599
6578,3591
6586,3584
6595,3575
6604,3565
6614,3555
6624,3545
6634,3534
6644,3523
6653,3512
6662,3502
6671,3492
6679,3482
6687,3473
6696,3462
6705,3452
6714,3441
6723,3429
6733,3418
6742,3406
6750,3396
6758,3386
6766,3376
6772,3368
6779,3360
6786,3351
6793,3342
6801,3332
6809,3322
6817,3310
6826,3299
6834,3286
6843,3274
6853,3261
6862,3247
6870,3236
6878,3224
6887,3210
6897,3196
6908,3179
6920,3160
6934,3138
6950,3115
6965,3090
6981,3066
6996,3043
7008,3025
7017,3011
7022,3003
7025,3000
7025,2999
" style="stroke:#000000;stroke-width:30;
stroke-linejoin:bevel; stroke-linecap:round;
"/>
<!-- Line -->
<polyline points="16495,2468
16495,2469
16494,2474
16492,2486
16489,2502
16485,2519
16482,2536
16479,2550
16477,2563
16475,2574
16473,2584
16471,2597
16469,2610
16467,2623
16465,2636
16464,2649
16463,2661
16462,2672
16462,2682
16462,2691
16462,2701
16463,2710
16465,2719
16467,2727
16469,2735
16472,2741
16475,2747
16481,2754
16487,2761
16495,2767
16504,2772
16513,2777
16522,2781
16529,2783
16536,2785
16544,2787
16553,2789
16563,2789
16572,2789
16582,2789
16592,2787
16598,2785
16606,2783
16614,2780
16623,2777
16633,2772
16644,2766
16656,2759
16669,2752
16682,2743
16696,2733
16711,2723
16727,2712
16738,2703
16750,2694
16763,2684
16777,2673
16794,2660
16812,2646
16832,2630
16854,2612
16878,2593
16903,2572
16928,2552
16952,2533
16973,2515
16989,2502
17001,2492
17008,2487
17011,2484
" style="stroke:#000000;stroke-width:30;
stroke-linejoin:bevel; stroke-linecap:round;
"/>
</g>
</svg>
