<svg xmlns="http://www.w3.org/2000/svg" width="13.9in" height="2.3in" viewBox="680 1779 16657 2726"><g stroke-width="60" fill="none" stroke="#000" stroke-linejoin="bevel" stroke-linecap="round"><path d="M5561 2783l160-414M13776 2570l-1-2-2-2-3-2-3-1-3 1-2 2-2 2-2 2-1 1-1 1-1 2v4l1 4 4 7 4 4 4 4 5 3 6 2 4-1 1-4 1-5v-8M15676 2786l154-409M10032 3732h35l19-1h18l15-1 13-1 12-1 12-1 11-1 12-2 12-2 13-3 13-3 13-3 13-4 13-3 11-4 12-4 11-4 12-5 13-5 13-6 14-6 13-6 14-6 12-6 13-6 12-6 9-6 11-5 10-6 12-6 11-7 13-8 12-8 13-8 12-8 13-9 12-9 12-9 11-9 12-9 12-10 13-11 13-11 14-12 14-13 14-13 14-13 14-13 14-13 13-12 12-13 12-12 11-11 10-11 11-11 11-12 11-12 12-13 12-13 12-13 12-14 12-14 12-13 12-14 11-13 11-13 11-13 11-13 10-12 11-12 10-12 11-13 12-14 12-14 12-15 12-16 13-15 13-17 13-16 13-16 12-17 13-16 12-17 12-16 12-16 12-16 11-17 12-17 12-18 13-19 12-19 13-19 13-20 13-21 13-20 12-20 12-19 12-19 11-18 10-18 9-16 9-15 8-14 7-13 10-19 9-18 9-17 7-16 7-15 6-14 5-13 4-13 4-11 3-10 2-10 3-9 2-10 2-11 3-12 1-11 2-12 1-11v-20l-1-8-1-7-2-7-3-7-3-6-4-6-5-5-6-4-6-4-5-3-7-2-6-1-8-1h-8l-10 1-10 2-10 4-9 4-9 4-8 6-7 6-8 7-7 9-8 9-7 11-6 10-7 11-5 10-5 9-4 9-5 10-5 10-5 11-5 12-5 12-4 11-4 11-4 11-2 7-3 8-2 8-3 10-3 10-4 12-4 13-4 15-5 17-6 18-6 19-6 22-7 23-8 24-8 26-9 29-7 20-7 22-7 22-8 24-8 26-9 27-9 28-9 29-10 29-10 31-9 31-10 31-10 31-10 31-10 31-9 30-9 29-8 28-8 26-8 26-7 24-7 23-6 22-5 20-8 29-7 26-5 25-5 23-4 21-4 20-2 18-2 16-2 15v34l1 8 1 8 1 6 2 6 2 11 4 10 4 10 5 8 5 8 5 6 5 6 6 4 5 4 7 4 7 4 8 3 9 3 9 2 9 2 9 1h10l10 1h12l12-1 14-1 13-1 13-2 12-2 11-1 11-2 11-2 12-3 13-2 12-4 12-3 12-4 11-4 10-4 10-4 9-6 11-6 10-6 11-8 10-7 11-8 9-9 10-8 9-8 8-7 8-8 9-8 9-9 10-9 9-10 10-9 9-10 9-9 9-10 9-9 8-8 8-9 8-9 8-9 9-10 9-10 8-10 9-11 9-10 8-9 8-10 7-8 7-9 9-10 9-11 9-11 9-12 9-11 9-12 9-11 8-11 8-10 7-10 7-10 7-10 8-11 7-11 7-11 8-11 7-10 6-10 7-10 6-9 6-9 6-9 7-10 7-9 7-10 7-9 7-9 7-8 6-8 7-6 8-9 8-8 10-7 10-8 10-7 10-7 9-6 9-5 10-5 10-5 11-5 11-4 11-4 11-4 11-3 9-2 10-2 9-1 11-1 10-1h45l9 1 10 1 11 1 13 1h10l5 1h1"/><path d="M11655 3158v1l-2 3-5 9-7 14-8 17-9 17-8 17-7 15-7 14-5 12-5 12-4 11-4 11-3 11-4 12-3 13-4 13-3 13-3 13-3 13-2 12-2 12-3 11-1 11-3 13-2 13-2 13-3 14-2 14-2 13-2 13-1 11-1 11-1 10-2 11v12l-1 11v38l1 7 1 9 2 9 2 8 2 8 2 7 3 6 3 6 4 7 4 6 5 6 6 6 6 4 8 4 8 3 10 3 12 2 11 1 11-1 9-1 9-1 10-3 11-3 11-4 10-4 10-5 9-5 8-5 9-7 9-7 9-9 10-8 8-9 9-9 8-9 7-8 6-7 8-9 7-9 8-9 7-10 7-9 6-10 6-8 6-9 4-9 5-9 5-10 4-10 4-11 5-10 4-11 3-11 4-10 4-10 3-10 4-11 5-11 4-13 5-12 5-13 4-13 5-12 4-12 3-11 4-12 4-12 3-13 4-13 4-14 3-13 4-13 3-12 3-12 3-11 3-10 2-11 3-11 4-12 3-11 3-12 3-11 2-10 3-10 2-9 2-9 2-10 3-11 2-12 3-14 3-15 2-13 2-10 1-4v-1M11924 3377v1l-2 5-3 11-5 15-5 16-5 16-5 14-3 12-3 11-3 10-3 11-3 11-3 11-3 12-2 12-3 12-2 11-2 10-2 10-2 9-1 10-2 10-1 10-1 10v25l1 6 2 8 2 8 4 7 4 7 5 6 6 4 6 4 7 4 8 4 9 3 9 2 8 2 9 1 10 1 10 1 11 1h11l10 1h26l10-1h10l9-1 9-1 9-1 9-2 9-2 9-3 11-4 10-4 11-5 11-5 11-6 10-5 10-6 11-6 12-8 12-8 12-8 12-8 12-8 11-8 10-8 10-8 10-8 10-9 11-10 10-10 11-10 10-10 9-10 9-9 9-10 8-8 7-8 8-9 9-10 9-10 9-11 10-11 9-12 10-12 9-11 10-12 9-12 7-10 8-10 8-10 8-12 9-12 10-13 10-14 11-15 12-16 11-16 12-16 12-17 13-17 12-17 13-18 14-18 11-16 11-16 12-16 13-18 13-18 14-19 14-19 15-20 15-21 15-21 15-21 15-20 15-21 14-20 14-19 13-19 13-18 12-17 12-17 11-15 13-20 13-19 13-19 12-18 13-19 11-18 12-17 11-17 10-17 10-16 9-14 8-14 8-12 6-12 7-11 5-10 8-15 8-14 7-14 6-13 6-13 5-12 4-11 4-10 3-9 3-9 3-10 3-11 2-12 3-12 2-11 1-10 1-10 1-8-1-11-1-11-2-10-3-9-4-8-4-6-5-4-6-4-7-3-8-2-8-1h-15l-7 1-8 1-8 2-8 3-9 4-7 4-8 4-8 6-7 6-9 8-8 8-8 9-8 9-7 9-6 9-6 9-6 10-6 11-6 11-6 11-5 11-4 11-4 10-4 8-3 9-3 9-3 10-4 11-3 11-4 11-3 12-4 11-3 12-3 10-4 11-3 12-4 13-4 13-5 14-4 15-4 14-4 14-4 13-3 14-3 13-3 9-2 10-3 10-2 12-3 12-3 13-4 14-3 15-4 16-4 17-5 18-4 18-6 20-5 21-6 22-6 23-5 18-5 19-5 20-6 21-6 22-7 23-7 24-6 25-8 25-7 26-7 26-8 26-7 25-7 26-7 24-7 23-6 23-6 21-6 20-5 19-5 18-4 16-8 28-7 25-6 23-6 20-4 19-4 16-3 14-3 12-2 10-1 8-1 7v31l2 11 2 11 3 9 3 7 3 7 5 6 5 5 6 5 6 4 6 2 7 3 7 1 9 2h10l9 1 9-1h9l11-2 10-1 11-3 10-2 9-3 9-4 9-4 9-5 9-6 8-7 8-6 6-6 7-6 7-8 7-8 7-9 7-9 7-9 7-9 5-8 5-9 5-10 6-10 5-10 6-11 6-11 5-10 5-10 5-10 4-9 5-10 6-10 5-11 5-11 6-11 5-11 5-11 4-10 4-10 5-10 4-10 4-11 5-12 4-12 4-13 4-12 4-11 3-12 4-10 3-11 3-11 3-12 3-12 3-13 3-12 2-12 2-11 3-11 1-10 2-10 2-10 1-11 1-11 2-11 1-10 1-11v-10l1-9v-41l-1-11-1-10-1-8-1-8-1-6-3-7-2-6-4-4-3-3-4-2-4-1h-5l-5 1-6 1-6 3-5 3-5 3-4 3-5 5-4 5-3 6-3 6-3 6-2 8-2 9-1 9v18l1 9 1 10 2 10 2 10 3 9 3 7 3 6 3 6 5 6 5 5 5 5 6 4 6 4 8 4 9 4 11 4 10 4 12 3 9 2 10 3 11 2 12 3 12 2 12 2 12 2 11 2 11 1 11 1 13 2 12 1 13 1h13l12 1h33l11-1h11l13-1 12-1 13-1 11-1 12-1 11-1 11-1 12-1 12-2 13-1 13-2 13-2 13-2 12-3 11-2 11-2 10-3 11-3 11-3 11-4 12-4 11-5 10-4 9-4 9-4 8-5 10-5 9-6 10-6 9-7 8-6 7-6 7-6 5-6 7-7 5-8 6-8 4-8 4-8 4-8 2-8 4-10 3-12 4-13 3-9v-2M14357 3176v-1l3-5 5-11 6-12 6-12 5-10 5-8 4-7 5-8 5-7 5-8 6-8 6-7 7-7 6-7 6-5 6-6 7-5 7-6 8-5 8-5 7-4 7-4 6-3 8-4 8-3 9-4 8-2 9-2 8-1 8-1 9-1h9l10 1 9 1 8 2 7 2 7 4 7 5 7 6 5 6 5 8 2 5 3 7 2 8 1 8 2 9v27l-2 9-1 10-3 10-3 11-3 10-4 11-4 9-3 9-4 8-5 8-5 8-5 8-5 8-5 7-5 6-5 6-7 7-7 7-7 7-8 7-8 5-8 5-8 4-9 5-9 4-10 3-9 2-8 1h-6l-5-1-6-1-5-2-5-2-4-3-4-3-2-3-2-4-2-5-1-4v-11l1-5 1-4 2-4 4-5 4-5 6-4 6-4 7-2 6-2 6-1h14l7 1 6 2 6 2 6 2 6 4 5 4 5 4 5 5 3 6 3 6 3 7 2 9 3 11 3 11 3 12 2 9 3 11 3 12 3 14 3 13 3 13 2 13 2 12 2 11 1 12 1 13v13l1 12 1 12v21l1 10 1 10 1 11 1 10 1 11 2 11 2 10 2 9 2 10 3 11 3 11 4 11 3 11 4 11 4 9 4 9 4 8 4 8 5 8 4 7 5 7 5 6 5 5 4 5 7 5 7 4 8 4 8 3 9 3 8 1 7 1 7 1h8l9-1 9-1 9-1 9-3 9-3 5-2 7-3 6-4 8-5 8-6 9-7 10-8 11-9 11-10 12-11 13-12 13-13 10-10 10-10 11-11 11-12 12-13 13-14 14-14 14-15 14-15 14-15 14-15 14-15 13-15 13-14 12-13 12-13 12-13 10-12 14-14 12-15 13-14 12-14 13-13 11-14 12-13 10-12 11-12 9-10 9-11 7-9 8-9 7-8 9-11 9-11 9-11 9-11 8-10 9-10 8-10 7-9 8-8 7-8 7-8 7-7 8-8 8-8 9-8 8-7 9-7 9-7 8-5 8-6 10-6 12-6 12-5 12-6 13-4 12-5 11-3 10-3 11-3 10-3 11-2 12-2 11-2 11-2 10-1 9-1h10l10-1h12l15-1h36"/><path d="M13670 2996v1l-1 5-3 11-3 17-5 21-5 23-4 22-5 20-4 18-4 16-3 16-4 16-4 14-4 14-3 16-5 16-4 16-5 18-4 17-5 17-5 17-4 17-5 16-4 15-4 15-3 14-5 15-4 16-4 16-5 16-4 15-4 16-4 15-4 14-3 13-3 12-2 11-3 10-3 14-2 14-2 13-1 13-1 12v11l1 9 2 9 2 6 2 6 3 6 4 6 5 6 5 6 5 4 6 5 6 3 7 3 9 4 10 2 12 3 13 1 13 1 14 1 13-1h12l11-1 10-1 12-2 12-2 12-2 13-3 12-3 12-4 11-4 11-3 10-5 12-5 11-5 12-7 12-7 12-7 12-7 11-7 10-7 10-7 9-8 10-8 10-8 10-9 11-9 10-10 10-10 10-9 9-9 9-9 8-8 7-8 9-8 8-9 9-9 9-10 10-10 9-10 8-10 9-10 8-9 8-10 7-8 7-9 8-10 8-10 8-11 9-11 9-13 9-13 10-13 10-14 10-13 10-14 11-15 10-14 9-12 9-13 10-13 10-14 11-15 11-16 12-16 12-17 13-17 12-18 13-17 13-18 13-17 12-17 12-16 12-17 12-15 12-16 11-16 12-16 12-16 12-16 12-17 12-17 13-17 13-17 12-17 12-17 12-17 12-16 11-15 10-15 10-13 9-13 8-13 8-12 10-15 9-14 10-14 8-14 9-14 8-13 7-14 8-12 6-12 6-11 6-10 5-10 5-8 4-8 6-12 6-10 5-11 6-11 5-10 5-10 4-9 4-9 4-8 3-7 3-9 3-10 3-9 3-10 2-9 2-9 1-8 2-8 1-10 1-11 1-10 1-11-1-9v-9l-2-6-1-6-2-6-3-6-4-6-4-4-4-4-5-3-6-3-7-1-7-1-9-1-9 1-9 2-9 2-9 3-9 4-10 5-10 6-10 7-11 8-10 9-9 9-8 9-7 8-7 9-6 9-7 11-7 11-7 12-6 13-6 12-5 13-5 13-3 7-3 8-3 8-3 10-3 10-4 12-4 14-4 14-5 17-5 18-6 20-6 21-6 23-7 25-7 26-7 28-8 30-9 32-6 20-5 22-6 22-7 25-7 26-8 28-8 30-9 32-9 35-10 37-11 40-12 43-12 45-13 48-13 50-14 52-15 52-14 52-14 51-13 49-12 45-11 41-10 35-7 29-7 22-4 16-3 11-1 5-1 3M15342 3126v1l-3 5-6 12-9 17-9 18-8 18-8 15-6 13-6 13-5 12-6 11-5 13-6 13-5 14-6 14-5 14-5 14-5 14-4 12-4 13-4 12-4 12-3 13-4 14-3 13-3 13-3 13-2 12-2 11-2 11-2 10-1 10-1 11-1 11-1 10-1 11v19l-1 9 1 9v21l1 10 2 11 1 10 3 10 2 8 3 8 3 6 4 7 5 5 6 6 7 5 7 4 7 3 8 2 9 1 9 1h11l12-1 13-2 12-3 12-5 12-5 9-5 10-7 10-7 11-9 11-9 10-10 10-11 10-10 9-11 9-10 6-9 7-9 7-9 7-11 8-10 7-12 7-11 7-12 6-11 6-12 6-11 6-11 6-12 5-12 6-13 7-14 6-15 6-15 6-15 7-15 5-14 6-14 5-14 6-13 5-13 5-14 5-13 5-15 6-14 5-14 5-15 5-13 4-13 4-12 3-10 4-10 4-15 4-14 3-13 3-13 3-13 3-11 2-9 2-9 2-8 1-9 3-10 2-10 3-12 3-9 1-5v-1M15588 3348l-1 3-2 5-3 8-3 10-5 12-4 13-5 16-6 18-7 21-6 21-6 16-3 10-2 6-2 3-1 4-2 5-3 10-3 16-4 19-3 23-2 15v16l1 7v12l1 18 1 20 1 10-2 3v2l3 7 8 12 12 10 7 5 3 1 4 1 11 2 20 4 17 2 12 2h6l3 1h10l16-2 24-3 22-4 17-3 12-2 7-1 5-1h5l7-2 13-4 19-8 24-10 20-10 17-9 11-7 7-4 4-3 3-3 2-2 4-3 7-6 11-9 16-12 19-15 19-15 15-13 10-8 6-5 3-1 2-1h1l3-3 6-6 12-12 17-18 21-24 17-20 16-19 13-17 11-13 8-11 6-9 5-6 4-6 4-7 4-7 6-8 8-11 11-15 13-17 15-20 16-22 20-27 16-20 10-14 6-7 3-3 1-1h1l2-3 5-6 9-13 12-18 16-24 16-25 14-23 12-21 11-19 10-17 8-16 8-14 6-13 5-9 3-5 1-3M16392 2999v2l1 9 3 13 2 12 3 9 3 7 3 5 4 5 4 4 5 4 6 4 6 2 6 2 6 1 9 1 10-2 11-2 10-4 10-5 9-5 5-5 6-6 6-8 7-9 7-11 6-9 2-4 1-1M16543 3008v1l-1 3-2 9-3 13-5 17-4 18-5 19-5 18-4 18-5 18-5 19-5 21-4 15-4 17-5 17-4 18-5 20-6 20-5 21-5 21-6 22-6 22-5 21-5 21-5 20-5 19-4 17-5 17-3 15-4 14-5 23-5 21-4 18-3 17-2 14-2 12v26l1 6 2 9 4 10 5 9 6 8 7 7 7 6 6 4 7 3 8 4 8 3 9 3 9 2 10 2 9 1 8 1h8l10 1 9-1h11l11-1 11-2 11-1 11-2 10-3 11-2 12-4 12-4 13-4 14-5 14-6 13-6 13-6 13-6 12-6 9-6 10-6 11-6 10-7 11-7 11-8 11-8 10-7 10-8 9-8 8-7 9-8 6-6 7-7 8-8 7-8 8-9 9-10 9-11 10-12 11-13 11-14 12-15 12-16 13-17 14-18 9-12 10-13 11-15 12-15 13-17 14-19 16-21 17-22 19-25 20-27 22-29 22-29 23-30 22-30 21-27 18-24 16-20 11-15 8-11 4-5 2-3M9520 3729l2-1 5-2 7-3 9-5 11-6 12-7 16-9 19-13 23-16 20-15 17-12 12-10 8-6 4-4 3-2 3-3 5-5 9-7 14-12 20-16 24-20 22-18 19-16 16-13 11-9 8-7 6-5 5-3 5-4 5-5 8-6 11-10 15-13 18-15 20-18 22-20 16-15 11-10 6-6 3-2 1-1v-1l2-3 6-5 9-10 15-15 18-19 19-20 15-16 12-13 8-9 5-5 4-5 3-4 5-5 8-9 11-12 14-16 17-19 19-21 13-15 9-9 3-4 2-2 2-1 3-4 7-8 11-13 14-17 14-17 11-15 8-11 6-9 4-7 4-7 4-7 5-6 5-6 4-1v5l-2 7-4 8-5 7-5 7-5 8-5 10-6 13-6 17-6 21-5 21-3 17-1 11-1 6v4l1 4v6l-1 11-1 17-1 22-1 21-1 16v18l1 5v25l1 21 1 21 1 17 1 11 1 6v4l1 4 1 6 1 11 1 16 1 20 1 23 1 16 1 7 1 3 1 3v20l-2 19-3 19-2 12-2 6v2l-1 2-2 5-5 11-9 17-10 16-8 11-4 6-3 3-3 3-6 6-9 9-13 14-13 13-8 8-4 4-1 2-2 2-4 3-9 6-15 7-15 6-12 4-6 1-3 1h-10l-11 1-17 1h-27l-6 1-3 1-3 1-5-1-10-4-14-9-13-12-9-8-4-5-2-3-2-3-4-7-6-15-8-24-6-22-4-21-3-20-1-18-2-17v-16l-1-13v-12M7268 3227v1l-1 4-3 11-5 18-6 24-7 26-7 27-7 26-6 23-5 20-5 18-4 16-3 14-3 14-4 15-3 14-3 15-3 14-3 13-2 13-2 13-2 11-2 11-1 9-1 8v8l-1 11v20l1 9 2 9 2 7 2 7 4 6 4 7 7 7 8 7 10 7 10 5 11 4 9 2 11 2 11 2 13 1 13 1h26l13-1 10-1 10-2 11-2 12-2 12-3 13-4 12-4 12-4 12-4 12-5 10-4 10-5 11-5 12-6 12-7 12-7 13-8 12-8 13-9 12-9 12-9 11-10 10-9 11-10 10-10 11-11 12-12 12-12 11-13 12-13 12-13 11-12 10-13 10-12 10-11 9-11 9-11 9-11 10-12 9-11 9-12 10-13 10-12 10-13 10-13 9-12 9-13 10-12 9-12 9-12 9-12 10-13 10-14 10-14 11-14 11-15 11-15 12-14 11-14 10-13 10-12 10-12 8-10 9-9 11-12 11-10 11-10 11-9 10-7 10-7 10-5 8-5 8-3 7-3 9-4 9-3 9-2 9-3 9-2 9-1 8-1h8l8-1 8 1h9l9 2 8 2 8 2 7 3 6 4 7 6 7 7 6 10 4 10 3 12 2 11v8l-1 10-1 11-2 11-2 12-3 12-3 12-2 12-2 8-2 8-3 9-2 10-3 11-4 12-3 13-4 13-4 14-5 15-5 15-5 15-5 15-5 15-6 17-6 18-6 18-7 19-7 20-7 19-6 19-6 18-6 17-5 15-5 15-4 13-5 16-4 15-4 13-3 13-2 11-1 10-1 8-1 7 1 6v5l1 9 2 8 3 9 4 7 5 7 5 6 6 5 7 6 8 4 9 5 9 3 8 3 9 1 9 1h20l10-2 10-2 8-3 9-3 9-4 10-5 10-6 10-5 9-7 9-6 7-5 7-6 7-7 7-7 8-8 7-8 7-8 6-9 7-8 6-9 5-9 6-9 6-11 7-11 6-12 6-11 6-12 6-12 5-11 5-11 5-10 5-12 5-12 5-12 5-12 5-13 5-12 4-12 5-11 4-11 4-10 4-11 4-12 4-12 4-12 4-12 4-12 3-11 3-10 3-11 3-10 3-10 3-11 2-12 3-11 2-12 2-10 2-11 2-9 2-9 1-11 2-10 2-12 1-11 1-11 1-10v-9l1-9v-9l-1-9v-9l-1-10-1-8-2-8-2-7-2-5-3-6-5-6-5-4-5-3-5-1-5-1-5-1h-4l-5 1-4 2-5 3-3 3-4 5-5 5-4 7-4 8-3 8-2 8-2 8-1 10-1 10v10l1 10 1 8 2 8 2 9 3 8 4 8 4 7 4 6 5 6 6 7 8 6 9 6 10 5 10 5 9 4 10 3 12 3 12 3 14 3 14 2 13 2 13 2 11 1 11 1 12 1h13l13 1h26l12 1h34l11 1h37l13 1 12-1h25l11-1 12-1 13-1 13-2 15-2 14-2 14-3 14-2 12-3 12-3 11-3 11-4 10-3 10-4 10-4 10-5 9-5 9-5 8-5 7-5 7-5 7-7 8-7 8-8 7-8 7-8 6-7 5-7 5-6 6-8 5-7 5-7 5-7 4-6 4-6 4-6 4-7 6-10 7-11 4-7 1-1M7210 2576h-1l-5 1-10 1-11 3-12 6-14 9-11 11-5 7-2 3-1 3-3 8-5 16-3 17-1 9-1 4 1 5 1 9 3 18 5 17 3 10 3 4 2 4 5 8 9 13 7 8 5 5 1 1h1l3 1 6 2 12 4 14 3 10 3 7 2 4 1 5 1 7 1h11l16-2 12-3 10-3 6-1 3-1 3-1 2-1 3-2 4-4 7-7 7-10 7-15 4-11 2-8 1-6v-43l-3-19-2-10-1-3-2-3-5-7-10-14-12-12-7-6-4-2-4-2-8-4-16-7-17-6-13-3-12-1-8-1h-6M7026 2996v1l-1 4-3 10-4 15-5 18-5 19-5 19-4 17-4 14-3 14-3 12-3 12-4 12-3 13-3 13-3 13-4 14-3 14-3 14-4 14-3 13-3 13-3 11-3 12-4 13-3 14-4 13-4 15-4 14-4 14-4 14-4 13-3 12-3 11-3 12-3 11-3 12-3 13-3 12-3 12-3 12-2 11-2 9-2 10-3 10-2 11-2 11-2 11-2 11-1 10-1 9v10l1 9 1 9 2 10 2 10 4 10 4 9 5 7 6 7 6 5 7 5 9 4 10 3 11 2 10 1h11l10-1 8-2 9-2 9-3 10-4 9-5 10-5 9-6 9-6 8-7 8-7 8-8 7-9 8-10 8-11 8-12 8-12 8-13 8-13 7-14 7-13 6-12 6-12 7-13 6-14 7-14 7-15 7-15 6-15 6-15 6-14 6-13 5-13 4-13 5-13 5-13 4-14 5-14 5-15 5-15 4-14 5-15 4-15 5-14 5-14 4-13 4-14 5-14 5-17 6-18 7-21 7-23 8-24 8-23 7-21 5-16 3-9 2-4v-1M6143 2996v2l1 8 1 13 1 11 2 9 2 7 1 5 2 4 3 5 3 4 4 4 4 4 5 3 5 2 7 3 9 2 10 1 10 1h10l8-1 8-2 8-2 8-3 7-5 7-5 5-5 5-7 6-9 6-12 7-14 4-9 1-2M2971 3185v-1l2-5 4-9 5-11 5-10 4-9 4-8 3-6 4-8 5-7 6-8 6-8 7-7 7-8 8-6 8-6 6-5 8-5 9-4 9-5 10-4 10-5 10-3 11-4 9-3 10-3 12-3 12-2 13-3 14-1 12-1 12-1 10 1 9 1 7 2 6 3 6 3 6 4 5 4 4 5 4 6 3 6 3 6 3 7 1 7 2 8 1 9 1 9 1 11v33l-1 12-1 11-1 12-2 12-2 13-2 15-3 15-3 14-3 15-3 14-3 13-4 13-3 12-4 13-5 13-5 13-4 14-6 13-5 13-4 12-5 11-4 10-5 10-5 11-4 11-5 11-5 11-5 11-5 10-4 10-4 9-4 9-4 11-5 12-4 12-4 12-4 11-4 11-2 10-2 9-2 9-1 9-1 8-1 9v9l1 7 1 8 1 6 2 9 3 9 5 8 5 8 6 7 7 6 6 3 6 3 8 3 9 2 8 2 9 2 8 1 9 1 8 1 8 1h40l11-1 10-1 9-2 10-1 11-3 12-2 12-4 12-3 13-4 11-4 12-5 11-4 10-5 11-5 11-6 12-7 12-7 12-7 12-8 11-8 10-8 10-7 9-7 8-8 9-7 9-9 10-8 9-9 10-10 9-9 9-9 8-8 8-9 8-8 9-10 9-10 9-11 10-11 9-11 10-12 9-11 9-11 8-10 8-10 8-10 8-11 9-11 9-11 8-12 9-12 9-11 8-10 7-10 7-9 7-9 6-9 7-10 8-10 7-9 7-10 7-10 6-9 6-9 7-8 6-9 6-9 7-10 7-10 7-11 7-10 7-10 7-9 5-9 6-8 7-10 6-9 7-10 7-10 7-9 7-8 6-7 7-7 6-6 7-7 8-6 8-6 9-6 9-5 8-5 9-5 9-4 10-4 11-4 12-4 11-4 12-4 11-3 10-2 10-3 11-2 11-3 11-2 11-1 11-2h9l9-1h17l10 1 11 1 12 1 10 1 5 1h1M2312 3005h-1l-7 1-10 1-9 2-8 3-6 4-4 5-5 5-4 7-5 8-4 8-3 8-3 8-3 8-2 10-2 11-1 11v21l2 10 2 8 3 9 4 9 6 9 5 8 7 8 5 5 6 5 7 6 8 5 8 5 9 5 9 3 9 4 10 2 11 3 11 2 13 1 13 1h35l10-2 11-1 11-2 12-3 11-3 11-4 9-3 10-3 9-4 9-4 10-5 9-6 10-5 9-6 8-6 8-7 7-6 8-8 8-8 8-9 8-9 8-8 7-8 8-8 7-7 8-7 9-8 10-7 10-8 11-7 10-6 11-6 9-5 9-5 11-5 11-5 11-5 11-5 11-4 10-4 10-3 9-3 10-3 11-3 10-2 10-2 10-1h10l9 1 8 1 8 1 9 2 9 3 9 4 8 4 8 5 6 6 6 5 4 7 4 7 3 8 3 9 2 10 1 10 1 10 1 9v45l-1 13-2 14-1 12-2 13-2 11-2 11-2 12-3 13-3 14-3 13-4 14-3 13-4 13-3 13-4 12-4 14-4 13-4 15-5 15-4 14-5 15-4 13-4 13-4 12-4 12-4 12-4 13-4 13-4 14-4 13-5 14-4 13-4 13-3 13-4 11-3 12-4 14-4 15-5 17-6 19-6 21-5 19-5 16-3 11-1 4v1"/><path d="M3915 3173l-1 1-3 7-6 14-7 17-7 15-5 14-5 11-5 10-4 9-4 8-4 10-5 9-4 10-5 11-4 10-4 10-3 9-4 10-3 10-3 11-3 11-3 12-3 12-3 13-3 12-2 12-3 11-2 11-2 10-2 11-2 11-1 12-2 12-1 11-2 11v10l-1 9v20l1 11 1 11 2 11 2 10 2 9 2 9 2 8 3 9 4 9 4 9 4 8 5 6 6 6 6 4 7 4 9 3 9 2 10 1h10l7-1 8-1 9-2 9-2 10-3 9-3 8-4 8-3 8-4 8-5 8-6 9-6 8-6 8-6 8-7 6-6 7-7 7-8 7-8 7-9 8-10 7-10 7-10 7-10 5-8 5-9 6-10 7-11 6-11 6-12 6-11 6-11 6-11 5-11 5-11 5-11 6-12 5-12 5-13 6-13 5-13 5-12 4-12 4-12 4-12 4-12 5-13 4-13 4-14 4-14 4-13 4-13 4-12 3-11 4-12 3-11 4-12 4-12 4-13 3-12 4-12 4-12 3-11 4-11 3-11 4-12 4-13 5-15 5-18 6-18 5-17 4-12 2-6v-1"/><path d="M4199 3291v1l-2 6-3 12-5 18-5 19-4 18-5 16-3 14-4 12-3 12-4 11-3 12-4 12-5 13-4 14-4 14-5 14-4 14-4 14-4 14-4 13-4 13-4 14-4 15-4 17-4 16-5 17-4 17-4 17-5 16-4 15-4 16-4 15-4 15-4 16-4 16-5 17-5 17-4 17-4 16-4 16-4 15-4 14-3 14-3 14-3 13-3 15-3 14-3 15-3 15-3 15-3 15-3 14-3 13-3 13-2 13-3 13-3 13-4 13-3 14-4 15-3 14-4 14-4 13-3 13-4 12-3 11-4 11-4 11-4 12-4 11-5 12-5 11-5 10-5 10-5 9-5 8-5 7-7 9-8 9-9 9-9 9-10 8-9 8-10 7-9 6-9 5-10 5-11 5-10 5-11 4-9 3-9 3-8 2-7 1-7 1-7 1h-6l-6-1-5-2-5-2-4-3-4-5-4-7-4-8-3-9-2-10-1-9-1-8v-17l1-10 1-10 1-10 1-10 2-9 1-10 2-11 2-12 3-12 3-13 2-12 3-12 3-12 2-9 2-10 3-11 3-11 3-11 4-12 3-12 4-11 4-11 5-11 4-11 5-12 6-12 7-13 8-13 7-14 8-13 9-13 8-13 8-11 7-10 8-10 8-11 9-11 9-11 10-11 9-11 10-11 10-10 9-10 9-10 9-9 9-9 9-9 9-10 11-9 10-10 11-10 11-10 11-10 10-9 11-9 10-8 11-9 10-8 11-8 11-9 13-9 12-10 13-10 14-9 13-10 12-9 13-9 12-9 12-9 11-9 12-8 13-10 13-10 13-10 14-10 13-10 14-10 13-9 12-10 12-8 11-9 11-8 12-8 12-9 12-9 13-9 13-9 13-10 13-9 12-9 12-9 12-9 12-9 11-9 12-9 12-10 13-11 14-11 13-11 14-11 13-11 12-10 13-10 11-10 11-9 11-9 11-9 11-10 11-9 12-10 12-10 12-11 11-10 11-10 11-9 10-10 10-10 9-10 11-10 10-11 11-12 11-12 12-13 11-13 12-14 11-12 10-13 10-12 10-12 8-10 9-11 8-11 9-11 9-12 10-12 9-12 9-13 9-12 9-11 8-12 7-10 8-11 7-10 8-12 8-12 7-12 9-12 8-13 7-13 8-12 8-12 6-12 7-10 6-10 6-9 6-11 7-11 6-11 7-11 7-11 6-11 6-10 6-10 6-9 5-9 5-9 5-10 5-10 6-10 5-11 6-10 5-11 5-9 4-10 5-9 4-9 5-9 4-10 5-10 4-10 5-11 4-10 4-10 3-9 3-9 4-11 3-12 3-12 4-13 2-12 3-11 1-10 2-8 2-11 1-9 1-10v-8l-1-7-1-6-1-5-2-5-2-4-3-5-3-4-3-3-4-3-4-2-6-2h-15l-9 1-10 2-9 3-7 2-8 3-9 3-9 3-9 5-9 4-8 5-7 6-7 5-7 7-8 8-7 9-7 9-6 9-6 9-5 9-6 8-5 10-6 10-5 12-6 12-5 12-5 12-4 13-4 11-4 11-4 13-4 14-4 14-4 15-4 15-4 15-3 14-4 14-2 10-3 10-2 12-3 12-3 13-4 14-4 16-4 17-4 19-5 19-5 20-6 22-6 23-6 24-4 18-5 19-6 21-5 22-6 23-6 24-7 25-7 26-6 26-7 27-7 27-7 27-7 26-7 25-7 25-6 23-6 23-5 21-6 20-5 19-7 25-6 24-6 23-6 22-6 21-5 20-5 18-5 17-4 16-4 14-3 12-3 11-2 10-2 9-3 14-3 14-2 12-1 12-1 11v10l-1 8 1 8v9l1 10 1 10 2 9 2 9 3 7 3 6 4 6 6 6 6 5 7 4 7 4 8 2 9 3 10 2 11 1 11 2 12 1h49l10-1 11-1 9-2 10-2 10-2 11-4 12-3 12-4 11-5 12-4 11-5 9-4 9-4 10-5 11-5 10-5 11-6 10-6 10-5 9-6 9-5 8-6 8-6 8-7 9-6 9-8 8-7 9-7 8-7 7-7 8-7 8-7 8-7 9-8 9-9 10-9 10-9 9-9 10-10 9-9 9-10 8-8 8-9 8-10 9-10 9-11 9-11 9-12 9-11 9-11 8-12 8-10 7-11 8-11 7-11 8-11 8-12 8-13 8-12 8-12 8-12 7-12 7-11 7-10 6-10 8-12 7-11 8-12 8-12 8-12 7-12 6-10 6-10 5-9 4-8 4-10 4-10 3-10 2-9 1-9v-7l-1-7v-6l-3-8-3-8-4-7-5-6-5-5-5-5-6-3-7-3-8-3-8-2-8-2-7-1-8-2h-7l-9-1h-8l-8 1-7 1-7 2-7 2-7 4-7 4-7 4-5 5-6 5-5 7-5 7-5 9-4 9-4 9-2 7-2 9-2 9-2 10-2 10-2 10-2 10-1 10-2 9-2 10-2 11-2 11-2 11-3 10-2 11-2 9-2 10-2 10-3 12-2 12-3 12-2 13-3 12-2 13-3 10-2 11-2 13-3 13-3 14-3 14-4 14-3 13-3 13-3 13-4 12-4 13-4 14-4 14-4 14-4 14-4 13-4 12-3 11-3 11-3 12-2 12-2 13-2 11-1 12v19l1 8 2 10 3 9 4 10 4 8 5 7 5 6 5 5 6 5 7 4 7 4 8 3 7 3 6 1 7 1 7 1 9 1h18l9-1h10l8-1 9-1 10-1 10-2 11-2 11-2 12-2 11-2 10-3 10-3 11-3 10-3 11-4 12-4 12-5 11-5 12-6 11-6 10-5 9-6 10-7 10-7 10-7 10-9 10-8 10-9 9-9 9-9 8-8 8-8 7-8 7-8 8-8 8-9 8-10 7-9 8-10 8-9 7-9 8-9 6-8 7-8 7-9 7-9 8-10 9-11 8-10 9-11 8-10 8-10 7-10 8-9 7-10 8-10 8-11 8-10 8-11 9-12 8-11 8-11 8-10 7-10 7-9 6-8 8-10 7-10 8-10 8-10 7-10 8-10 8-9 7-9 6-9 7-8 7-9 6-8 8-9 7-10 7-9 7-10 7-9 6-8 6-8 5-8 6-8 6-9 6-11 6-11 7-12 6-10 3-5v-1M883 2493v-1l3-5 7-10 8-15 10-16 9-14 9-13 7-11 8-10 7-9 7-8 8-9 9-8 10-8 10-9 11-8 11-7 11-7 11-5 12-6 9-4 10-4 11-3 12-4 12-3 12-3 13-3 13-3 13-2 12-1 12-2h12l11-1 12-1h26l13 1 14 1h13l13 2 13 1 11 1 12 2 10 2 13 2 12 2 13 3 13 3 12 3 12 4 12 3 11 4 10 3 9 4 11 4 11 5 11 6 11 5 11 6 11 5 9 6 9 5 8 4 9 5 10 6 10 5 9 5 10 4 9 4 9 4 8 3 10 3 10 2 10 2 11 2 10 2h10l9 1h19l10-1 10-1 10-1 10-2 8-2 8-2 10-3 9-5 9-5 8-7 6-7 5-7 3-9 2-10v-10l-1-11-3-10-4-8-5-5-5-5-7-4-8-4-9-4-9-2-9-2h-9l-9-1-10 1-11 1-11 1-12 2-10 3-10 3-10 2-9 3-8 4-10 4-9 4-9 5-8 5-8 6-7 6-7 6-8 7-8 8-9 10-8 10-9 10-8 11-9 11-5 8-7 8-6 9-7 9-7 11-7 11-8 11-7 11-7 11-7 11-6 11-6 11-6 11-6 11-7 12-6 13-6 14-7 14-7 14-6 14-6 14-6 14-5 13-5 13-5 11-5 12-4 12-5 13-6 13-5 14-5 14-5 14-5 15-6 13-5 14-4 13-5 13-4 13-5 13-5 14-5 14-5 14-5 15-5 15-5 16-5 15-6 15-4 15-5 14-5 13-4 13-4 13-5 14-5 14-5 15-5 15-5 15-5 16-5 15-5 15-5 14-4 13-5 13-4 12-4 13-5 12-4 13-5 14-6 13-5 14-5 14-5 13-6 13-5 12-5 12-4 11-5 11-6 11-5 11-6 12-5 12-7 11-6 12-6 11-6 11-6 10-6 10-5 9-8 11-7 11-8 11-8 11-8 12-9 11-8 10-8 10-7 9-7 8-7 8-7 8-7 8-7 8-8 8-8 7-8 7-8 6-7 5-8 5-11 6-11 5-13 5-13 4-13 3-12 2-12 2h-18l-8-1-8-2-7-2-8-3-6-3-6-4-6-4-4-5-4-5-4-7-3-8-2-9-2-9v-19l1-9 1-8 3-8 2-8 4-8 5-7 5-7 5-6 6-5 6-4 6-4 7-3 8-2 9-2 9-1 8-1 8-1 9 1h16l9 2 9 1 10 2 8 2 9 2 7 2 10 3 11 5 10 4 10 5 9 4 8 4 8 4 7 4 9 4 8 5 9 5 9 5 7 4 8 4 9 6 10 5 10 6 10 6 10 5 9 5 8 5 9 4 10 5 10 5 10 5 11 4 10 4 11 3 9 3 10 2 10 3 12 3 11 2 13 3 12 2 11 2 11 2 11 1 11 1 11 1 11 2h12l11 1 12 1h42l9-1 10-1 10-1 11-1 10-2 11-3 10-2 10-4 10-3 9-4 9-4 9-5 10-6 11-7 11-7 10-8 11-8 10-8 10-9 9-8 8-7 7-8 9-8 8-9 9-9 9-9 9-10 9-10 9-10 8-10 9-9 8-9 8-10 8-10 9-10 9-11 9-11 9-12 10-11 8-11 9-11 8-10 7-9 8-9 8-11 8-11 8-11 8-11 9-11 8-11 8-11 7-10 8-10 7-10 7-10 7-10 8-11 8-12 8-12 8-12 8-11 7-11 7-10 7-9 6-10 7-9 7-10 7-9 7-10 7-9 7-9 7-8 6-8 7-7 8-8 8-9 10-9 10-8 10-8 10-8 10-6 10-6 9-5 10-5 11-5 11-5 11-4 10-3 10-3 9-3 9-2 9-1 9-2 10-1 10-1 9-1h36l12 1 14 1 15 1h13l7 1h1M1395 1833v1l-1 4-1 11-1 16-2 19-3 21-1 19-2 17-2 14-1 13-1 11-1 11-1 12-1 11-1 12v33l1 9 1 9 1 8 2 8 4 8 4 9 6 9 7 8 7 7 9 7 9 5 9 4 8 2 9 2 9 2 10 1h11l12-1 11-1 11-2 11-2 10-3 11-4 11-5 12-5 12-6 12-7 13-8 12-7 12-8 11-8 11-7 11-8 11-9 12-9 12-9 12-9 12-10 11-9 11-8 9-8 9-8 9-7 8-8 9-7 8-8 9-7 8-8 8-8 7-7 8-7 7-7 7-7 7-8 8-9 10-11 11-12 12-13 11-12 8-8 3-4 1-1M6303 3008v1l-1 5-2 10-3 15-3 16-4 16-2 13-3 12-2 10-3 10-2 9-3 10-3 11-3 11-3 11-4 12-3 11-3 11-4 11-3 11-3 11-3 12-4 13-4 14-4 14-4 14-4 15-4 13-3 14-4 12-4 13-4 13-4 14-4 15-4 14-5 15-4 13-3 13-4 12-3 12-3 11-4 11-3 11-3 12-3 11-2 11-3 10-2 9-2 9-1 8-2 9-2 10-1 9-1 9v25l1 7 1 9 3 10 3 9 5 9 6 8 6 6 6 5 7 4 8 4 8 3 10 3 10 3 10 1 10 1h27l11-1 11-1 12-2 11-2 12-2 11-3 11-2 12-3 12-4 13-4 14-4 14-5 14-6 14-6 13-6 12-6 12-6 10-6 9-6 10-7 11-7 10-8 10-8 11-9 9-8 10-8 8-8 9-8 8-7 9-9 9-10 10-10 10-10 10-11 10-11 9-11 9-10 9-10 8-10 8-9 9-11 9-10 9-11 9-12 10-11 9-12 8-10 8-10 8-10 6-8 7-8 7-9 7-9 8-10 8-10 8-12 9-11 8-13 9-12 10-13 9-14 8-11 8-12 9-14 10-14 11-17 12-19 14-22 16-23 15-25 16-24 15-23 12-18 9-14 5-8 3-3v-1M16495 2468v1l-1 5-2 12-3 16-4 17-3 17-3 14-2 13-2 11-2 10-2 13-2 13-2 13-2 13-1 13-1 12-1 11v29l1 9 2 9 2 8 2 8 3 6 3 6 6 7 6 7 8 6 9 5 9 5 9 4 7 2 7 2 8 2 9 2h29l10-2 6-2 8-2 8-3 9-3 10-5 11-6 12-7 13-7 13-9 14-10 15-10 16-11 11-9 12-9 13-10 14-11 17-13 18-14 20-16 22-18 24-19 25-21 25-20 24-19 21-18 16-13 12-10 7-5 3-3"/><path d="M1933 3206v1l-2 5-4 10-5 14-6 16-5 15-5 13-4 12-3 10-4 10-3 11-4 10-3 12-4 12-4 12-3 13-3 12-4 11-2 11-3 11-2 11-3 10-2 12-2 12-2 12-2 11-2 12-1 11-1 10-1 10-1 10v10l-1 10v52l1 9 1 9v10l2 10 1 11 2 10 3 10 2 8 3 8 3 6 4 6 4 4 5 5 5 4 6 3 7 2 6 1 8 2h25l11-1 11-2 10-2 10-3 10-3 9-5 10-5 10-7 10-7 10-9 10-9 9-9 9-9 6-8 7-8 7-10 7-10 8-10 7-11 7-11 6-11 6-10 6-10 6-11 5-10 6-12 6-12 7-13 6-13 5-13 6-12 5-12 5-12 4-10 4-11 4-11 4-11 5-12 4-13 5-13 4-12 4-13 5-12 4-11 4-12 4-12 4-12 5-12 4-13 5-14 5-14 5-14 4-13 5-13 4-13 3-12 4-11 3-14 4-14 4-15 4-17 4-20 5-21 4-18 3-14 1-6v-1"/></g></svg>