<?xml version="1.0" encoding="UTF-8" standalone="no"?>
<!-- Generator: Adobe Illustrator 18.0.0, SVG Export Plug-In . SVG Version: 6.00 Build 0)  -->

<svg
   xmlns:dc="http://purl.org/dc/elements/1.1/"
   xmlns:cc="http://creativecommons.org/ns#"
   xmlns:rdf="http://www.w3.org/1999/02/22-rdf-syntax-ns#"
   xmlns:svg="http://www.w3.org/2000/svg"
   xmlns="http://www.w3.org/2000/svg"
   xmlns:sodipodi="http://sodipodi.sourceforge.net/DTD/sodipodi-0.dtd"
   xmlns:inkscape="http://www.inkscape.org/namespaces/inkscape"
   version="1.1"
   id="Capa_1"
   x="0px"
   y="0px"
   viewBox="0 0 473.333 473.333"
   style="enable-background:new 0 0 473.333 473.333;"
   xml:space="preserve"
   sodipodi:docname="heart-juggling.svg"
   inkscape:version="0.92.3 (2405546, 2018-03-11)"><metadata
   id="metadata902"><rdf:RDF><cc:Work
       rdf:about=""><dc:format>image/svg+xml</dc:format><dc:type
         rdf:resource="http://purl.org/dc/dcmitype/StillImage" /><dc:title /></cc:Work></rdf:RDF></metadata><defs
   id="defs900" /><sodipodi:namedview
   pagecolor="#ffffff"
   bordercolor="#666666"
   borderopacity="1"
   objecttolerance="10"
   gridtolerance="10"
   guidetolerance="10"
   inkscape:pageopacity="0"
   inkscape:pageshadow="2"
   inkscape:window-width="1920"
   inkscape:window-height="1024"
   id="namedview898"
   showgrid="false"
   inkscape:zoom="1.7429589"
   inkscape:cx="50.445302"
   inkscape:cy="250.72306"
   inkscape:window-x="0"
   inkscape:window-y="0"
   inkscape:window-maximized="1"
   inkscape:current-layer="g865"
   inkscape:measure-start="0,0"
   inkscape:measure-end="0,0"
   inkscape:object-paths="true" />
<g
   id="g865">
	<path
   d="M471.446,228.716c3.08,3.87,2.25,7.48-1.48,10.33c-2.27,1.75-4.82,3.24-7.42,4.45c-12.39,5.81-24.9,11.36-37.23,17.31   c-2,0.97-3.7,3.2-4.83,5.25c-4.23,7.57-8.62,15.1-12.11,23.02c-5.9,13.39-16.5,21.68-28.89,28.17   c-13.42,7.02-27.02,13.68-40.41,20.72c-2.09,1.1-3.82,3.2-5.23,5.19c-8.15,11.5-15.81,23.36-24.31,34.59   c-7.61,10.05-16.06,19.46-24.19,29.12c-2.79,3.31-5.81,6.43-8.55,9.78c-5.1,6.27-8.68,7.47-15.83,3.88   c-6.77-3.4-13.73-6.78-19.66-11.39c-18.22-14.15-35.92-28.97-54.01-43.28c-1.97-1.56-5.15-2.06-7.81-2.2   c-17.31-0.89-34.71-0.71-51.9-2.54c-11.71-1.25-23.38-4.45-34.62-8.12c-14.19-4.62-22.9-15.94-30.04-28.41   c-3.93-6.86-7.5-13.92-11.05-20.56c-10.53,2.36-20.25,4.93-30.12,6.62c-7.6,1.3-10.1-1.48-8.64-9.09c1.9-9.92,3.7-19.93,6.74-29.53   c2.07-6.53,1.41-11.52-2.21-17.2c-5.61-8.84-10.56-18.12-15.37-27.42c-3.95-7.64-3.1-9.93,5.25-12.75   c12.3-4.16,24.83-7.64,37.26-11.44c2.69-0.82,5.35-1.73,8.74-2.83c-1.19-3.65-2.15-6.62-3.13-9.59   c-6.09-18.57-8.04-37.6-3.83-56.67c5.88-26.69,24.26-43.54,46.95-56.65c46.55-26.87,102.3-15.99,138.75,24.32   c1.16,1.28,2.55,2.36,4.23,3.89c23.51-29.2,52.65-47.15,87.99-53.59c24.01-4.37,45.15,2.31,63.11,20.49   c17.26,17.46,20.26,39.18,22.82,61.45c0.82,7.1,0.13,14.37,0.13,22.26c12-2.73,23.25-5.2,34.45-7.84   c10.89-2.58,13.26-1.13,12.47,10.21c-0.7,10.02-2.15,20.11-4.53,29.87c-2.49,10.26-2.54,18.81,6.67,26.13   C464.306,218.406,467.616,223.906,471.446,228.716z M461.746,233.026c-5.54-6.86-9.57-12.92-14.67-17.88   c-6.06-5.88-7.88-12.59-6.76-20.52c0.46-3.2,1.13-6.37,1.79-9.54c1.72-8.33,3.49-16.66,5.7-27.16   c-14.36,3.13-26.23,5.72-38.43,8.38c-0.58,5.04-1.05,9.15-1.5,13.11c19.88,4.72,26.49,12.62,25.63,32.12   c-0.41,9.25-3.07,18.4-4.83,27.56c-0.7,3.64-1.73,7.22-2.62,10.83c0.74,0.51,1.47,1.03,2.21,1.54   C439.116,245.496,449.976,239.516,461.746,233.026z M424.456,215.916c1.04-3.73,0.85-7.91,0.64-11.85   c-0.63-11.79-6.12-18.51-18.61-18.06c-2.64,9.77-5.32,19.71-8.23,30.5c8.43-3.58,10.56-9.92,10.13-18.59   c2.81,1.06,5.33,1.2,6.15,2.46c2.87,4.42,2.35,9.3-1.1,13.04c-3.88,4.22-7.99,8.82-12.96,11.35c-13.8,7.03-27.72,14.14-42.28,19.29   c-36.93,13.05-75.45,19.17-114.06,25.14c-42.47,6.57-85.02,6.19-127.66,4.03c-11.83-0.6-23.81-2.17-35.27-5.07   c-18.86-4.79-21.96-12.94-13.19-30.12c1.13-2.2,2.04-4.5,3.93-8.74c-23.84,15.07-26.61,40.16-16.36,56.8   c1.18-1.84,2.28-3.56,4.05-6.33c1.07,7.14-5.17,12.84,1.61,18.24c3.35-4.97,6.57-9.75,10.27-15.24c0.67,9.7-11.21,15.52-4.86,26.63   c3.09-4.02,5.38-7.01,8.58-11.18c0.06,8.26-11.19,14.82-1.18,22.14c4.48-5.8,8.73-11.3,12.98-16.8c0.58,0.35,1.15,0.7,1.73,1.04   c-3.66,7.27-7.31,14.53-11.2,22.25c5.99,9.08,13.62,14.01,22.79,17.26c14.5,5.13,29.53,7.43,44.7,7.51   c28.9,0.15,57.82-0.16,86.7-1.2c34.88-1.25,68.7-8.82,101.83-19.58c1.37-0.45,3.08-0.63,3.99-1.56   c10.62-10.98,25.43-15.01,37.76-23.07c6.55-4.27,13.46-9.29,17.61-15.66C407.876,267.656,417.116,242.116,424.456,215.916z    M383.016,215.376c11.56-25.2,14.66-52.01,14.4-79.27c-0.15-15.25-2.82-30.7-10.05-44.01c-13.35-24.58-40.64-34.98-68-27.34   c-23.01,6.43-43.52,17.75-60.33,34.85c-4.67,4.74-7.87,11.15-10.87,17.23c-1.87,3.8-1.71,8.79-7.19,9.67   c-5.69,0.91-8.33-3.36-11.22-7.05c-1.12-1.43-2.27-2.83-3.3-4.31c-8.64-12.43-20.09-21.46-33.15-29.02   c-43.4-25.14-88.95-13.97-121.33,19.65c-13.97,14.51-19.21,32.85-17.68,52.92c0.22,2.92,3.46,6.19,2.74,8.5   c-2.15,6.86,0.24,12.47,2.33,18.68c2.29-1.54,4.04-2.72,5.75-3.87c-2.35,7.58-5.49,15.24,2.47,22.81   c5.02-11.25,9.83-22.06,14.65-32.88c0.69,0.29,1.38,0.57,2.07,0.86c-3.61,9.21-6.5,18.8-11.03,27.55   c-4.74,9.16-2.64,16.33,3.57,23.3c1.34,1.52,2.92,2.84,4.41,4.24c0,0.01-0.01,0.02-0.01,0.03c0.01,0.01,0.02,0.02,0.04,0.05   c0.98,2.67,1.96,5.34,3.3,9.01c7.1-13.58,13.31-25.47,19.53-37.37c0.64,0.31,1.28,0.63,1.92,0.94c-1.06,2.53-2.02,5.12-3.2,7.59   c-3.92,8.14-8.12,16.15-11.82,24.38c-4.22,9.4-3.99,9.63,5,16.67c7.57-14.33,15.15-28.66,22.72-42.99c0.73,0.38,1.47,0.76,2.2,1.15   c-5.94,12.25-11.62,24.65-17.92,36.72c-4.08,7.82-4.19,14.61,2.7,21.53c6.44-13.66,12.59-26.91,21.16-38.79   c-3.83,13.36-12.1,24.82-16.53,38.71c10.89,0,20.24,0,29.2,0c4.3-8.05,8.36-15.64,12.42-23.24c0.68,0.35,1.35,0.7,2.03,1.05   c-3.19,7.04-6.38,14.09-10.01,22.11c5.27,0,9.11,0,13.29,0c2.54-6.64,5.38-13.16,11.79-17.47c-2.72,5.61-5.45,11.23-8.3,17.09   c44.58,5.33,191.6-21.48,221.24-40.49c-0.07-1.21-0.32-2.63-0.16-4.01C382.046,218.806,382.296,216.956,383.016,215.376z    M264.416,408.776c21.42-17.51,35.44-38.42,49.06-60.05c-18.83,3.63-36.72,7.74-54.83,10.38c-17.98,2.62-36.18,3.75-55.65,5.67   c6.72,5.18,12.58,9.69,18.3,14.1c2.21-1.38,3.79-2.37,5.86-3.67c-2.48,11.28,6.95,11.9,12.06,16.49c3.89-5.07,7.35-9.59,10.8-14.1   c0.49,0.35,0.98,0.69,1.47,1.03c-2.93,5.19-5.86,10.38-9.22,16.35C250.036,399.816,257.296,404.346,264.416,408.776z    M72.946,259.026c5.91,3.78,12.65,5.66,21.56,4.51c-7.24-9.35-13.56-17.5-21.49-27.73c-1.77,6.48-3.68,10.85-3.91,15.3   C68.976,253.746,70.776,257.636,72.946,259.026z M66.616,224.756c-2.68-4.32-5.1-8.23-7.18-11.58   c-17.51,3.18-34.24,6.22-52.76,9.59c7.29,10.6,13.31,19.93,19.94,28.81c5.12,6.85,7.34,13.35,3.84,21.95   c-3.35,8.23-5.01,17.14-7.95,27.7c9.64-2.43,17.18-4.33,25.05-6.32c-3.35-12.56-5.76-25.16-2.56-38.28   C48.236,243.376,57.326,234.216,66.616,224.756z"
   id="path815" />
	<path
   style="fill:#F7931E;"
   d="M447.076,215.146c5.1,4.96,9.13,11.02,14.67,17.88c-11.77,6.49-22.63,12.47-33.48,18.44   c-0.74-0.51-1.47-1.03-2.21-1.54c0.89-3.61,1.92-7.19,2.62-10.83c1.76-9.16,4.42-18.31,4.83-27.56c0.86-19.5-5.75-27.4-25.63-32.12   c0.45-3.96,0.92-8.07,1.5-13.11c12.2-2.66,24.07-5.25,38.43-8.38c-2.21,10.5-3.98,18.83-5.7,27.16c-0.66,3.17-1.33,6.34-1.79,9.54   C439.196,202.556,441.016,209.266,447.076,215.146z"
   id="path817" />
	<path
   style="fill:#fbb03b"
   d="m 425.096,204.066 c 0.21,3.94 0.4,8.12 -0.64,11.85 -7.34,26.2 -16.58,51.74 -31.51,74.63 -4.15,6.37 -11.06,11.39 -17.61,15.66 -12.33,8.06 -27.14,12.09 -37.76,23.07 -0.91,0.93 -2.62,1.11 -3.99,1.56 -33.13,10.76 -66.95,18.33 -101.83,19.58 -28.88,1.04 -57.8,1.35 -86.7,1.2 -15.17,-0.08 -30.2,-2.38 -44.7,-7.51 -9.17,-3.25 -16.8,-8.18 -22.79,-17.26 3.89,-7.72 7.54,-14.98 11.2,-22.25 -0.58,-0.34 -1.15,-0.69 -1.73,-1.04 -4.25,5.5 -8.5,11 -12.98,16.8 -10.01,-7.32 1.24,-13.88 1.18,-22.14 -3.2,4.17 -5.49,7.16 -8.58,11.18 -6.35,-11.11 5.53,-16.93 4.86,-26.63 -3.7,5.49 -6.92,10.27 -10.27,15.24 -6.78,-5.4 -0.54,-11.1 -1.61,-18.24 -1.77,2.77 -2.87,4.49 -4.05,6.33 -10.25,-16.64 -7.48,-41.73 16.36,-56.8 -1.89,4.24 -2.8,6.54 -3.93,8.74 -8.77,17.18 -5.67,25.33 13.19,30.12 11.46,2.9 23.44,4.47 35.27,5.07 42.64,2.16 85.19,2.54 127.66,-4.03 38.61,-5.97 77.13,-12.09 114.06,-25.14 14.56,-5.15 28.48,-12.26 42.28,-19.29 4.97,-2.53 9.08,-7.13 12.96,-11.35 3.45,-3.74 3.97,-8.62 1.1,-13.04 -0.82,-1.26 -3.34,-1.4 -6.15,-2.46 0.43,8.67 -1.7,15.01 -10.13,18.59 2.91,-10.79 5.59,-20.73 8.23,-30.5 12.49,-0.45 17.98,6.27 18.61,18.06 z"
   id="path819"
   inkscape:connector-curvature="0"
   sodipodi:nodetypes="cccccccccccccccccccccccccccccccc" />
	<path
   style="fill:#C1272D;"
   d="M397.416,136.106c0.26,27.26-2.84,54.07-14.4,79.27c-0.72,1.58-0.97,3.43-1.17,5.18   c-0.16,1.38,0.09,2.8,0.16,4.01c-29.64,19.01-176.66,45.82-221.24,40.49c2.85-5.86,5.58-11.48,8.3-17.09   c-6.41,4.31-9.25,10.83-11.79,17.47c-4.18,0-8.02,0-13.29,0c3.63-8.02,6.82-15.07,10.01-22.11c-0.68-0.35-1.35-0.7-2.03-1.05   c-4.06,7.6-8.12,15.19-12.42,23.24c-8.96,0-18.31,0-29.2,0c4.43-13.89,12.7-25.35,16.53-38.71c-8.57,11.88-14.72,25.13-21.16,38.79   c-6.89-6.92-6.78-13.71-2.7-21.53c6.3-12.07,11.98-24.47,17.92-36.72c-0.73-0.39-1.47-0.77-2.2-1.15   c-7.57,14.33-15.15,28.66-22.72,42.99c-8.99-7.04-9.22-7.27-5-16.67c3.7-8.23,7.9-16.24,11.82-24.38c1.18-2.47,2.14-5.06,3.2-7.59   c-0.64-0.31-1.28-0.63-1.92-0.94c-6.22,11.9-12.43,23.79-19.53,37.37c-1.34-3.67-2.32-6.34-3.3-9.01c0.05,0.03,0.12,0.07,0.16,0.1   c0.02,0.01,0.03,0.02,0.03,0.02c-0.02-0.19-0.05-0.39-0.07-0.58c5.96-15.49,11.96-30.94,17.96-46.38   c-0.91-0.36-1.83-0.73-2.75-1.09c-5.37,12.91-10.98,25.73-15.94,38.8c-0.93,2.45,0.3,5.71,0.73,8.67c-0.05,0.13-0.1,0.25-0.15,0.38   c-1.49-1.4-3.07-2.72-4.41-4.24c-6.21-6.97-8.31-14.14-3.57-23.3c4.53-8.75,7.42-18.34,11.03-27.55c-0.69-0.29-1.38-0.57-2.07-0.86   c-4.82,10.82-9.63,21.63-14.65,32.88c-7.96-7.57-4.82-15.23-2.47-22.81c0.13-0.09,0.26-0.18,0.39-0.27   c0.06-0.39,0.12-0.77,0.18-1.16c1.26-2.68,2.55-5.35,3.83-8.02c-0.82-0.25-1.65-0.51-2.48-0.77c-0.45,2.93-0.9,5.87-1.35,8.79   c-0.15,0.3-0.29,0.61-0.44,0.92c0,0,0.01,0.01,0.02,0.02c-0.05,0.16-0.1,0.33-0.15,0.49c-1.71,1.15-3.46,2.33-5.75,3.87   c-2.09-6.21-4.48-11.82-2.33-18.68c0.72-2.31-2.52-5.58-2.74-8.5c-1.53-20.07,3.71-38.41,17.68-52.92   c32.38-33.62,77.93-44.79,121.33-19.65c13.06,7.56,24.51,16.59,33.15,29.02c1.03,1.48,2.18,2.88,3.3,4.31   c2.89,3.69,5.53,7.96,11.22,7.05c5.48-0.88,5.32-5.87,7.19-9.67c3-6.08,6.2-12.49,10.87-17.23c16.81-17.1,37.32-28.42,60.33-34.85   c27.36-7.64,54.65,2.76,68,27.34C394.596,105.406,397.266,120.856,397.416,136.106z M129.866,260.156   c4.79-10.07,9.59-20.15,14.38-30.22C135.106,239.046,130.226,248.916,129.866,260.156z"
   id="path821" />
	
	
	
	
	<path
   style="fill:#C1272D;"
   d="M313.476,348.726c-13.62,21.63-27.64,42.54-49.06,60.05c-7.12-4.43-14.38-8.96-22.15-13.8   c3.36-5.97,6.29-11.16,9.22-16.35c-0.49-0.34-0.98-0.68-1.47-1.03c-3.45,4.51-6.91,9.03-10.8,14.1   c-5.11-4.59-14.54-5.21-12.06-16.49c-2.07,1.3-3.65,2.29-5.86,3.67c-5.72-4.41-11.58-8.92-18.3-14.1   c19.47-1.92,37.67-3.05,55.65-5.67C276.756,356.466,294.646,352.356,313.476,348.726z M235.626,384.956   c2.21-5.84,8.08-9.6,7.52-17.09c-3.46,5.11-6.91,10.21-10.37,15.32C233.726,383.776,234.676,384.366,235.626,384.956z"
   id="path831" />
	
	<path
   d="M243.146,367.866c0.56,7.49-5.31,11.25-7.52,17.09c-0.95-0.59-1.9-1.18-2.85-1.77   C236.236,378.076,239.686,372.976,243.146,367.866z"
   id="path835" />
	
	
	
	
	<path
   d="M144.246,229.936c-4.79,10.07-9.59,20.15-14.38,30.22C130.226,248.916,135.106,239.046,144.246,229.936z"
   id="path845" />
	<g
   id="g905" />
	<path
   d="M96.616,180.036c0.92,0.36,1.84,0.73,2.75,1.09c-6,15.44-12,30.89-17.96,46.38c-0.43-2.96-1.66-6.22-0.73-8.67   C85.636,205.766,91.246,192.946,96.616,180.036z"
   id="path849" />
	<path
   style="fill:#F7931E;"
   d="M94.506,263.536c-8.91,1.15-15.65-0.73-21.56-4.51c-2.17-1.39-3.97-5.28-3.84-7.92   c0.23-4.45,2.14-8.82,3.91-15.3C80.946,246.036,87.266,254.186,94.506,263.536z"
   id="path851" />
	<path
   d="M81.476,228.086c0,0-0.01-0.01-0.03-0.02c-0.06-0.07-0.12-0.13-0.19-0.18c0.05-0.13,0.1-0.25,0.15-0.38   C81.426,227.696,81.456,227.896,81.476,228.086z"
   id="path853" />
	<path
   d="M81.256,227.886c0.07,0.05,0.13,0.11,0.19,0.18c-0.04-0.03-0.11-0.07-0.16-0.1c-0.02-0.03-0.03-0.04-0.04-0.05   C81.246,227.906,81.256,227.896,81.256,227.886z"
   id="path855" />
	<path
   d="M67.036,171.786c0.83,0.26,1.66,0.52,2.48,0.77c-1.28,2.67-2.57,5.34-3.83,8.02   C66.136,177.656,66.586,174.716,67.036,171.786z"
   id="path857" />
	<path
   d="M65.246,181.496c0.15-0.31,0.29-0.62,0.44-0.92c-0.06,0.39-0.12,0.77-0.18,1.16c0,0-0.18-0.17-0.24-0.22   C65.256,181.506,65.246,181.496,65.246,181.496z"
   id="path859" />
	<path
   d="M65.506,181.736c-0.13,0.09-0.26,0.18-0.39,0.27c0.05-0.16,0.1-0.33,0.15-0.49   C65.326,181.566,65.506,181.736,65.506,181.736z"
   id="path861" />
	<path
   style="fill:#F7931E;"
   d="M59.436,213.176c2.08,3.35,4.5,7.26,7.18,11.58c-9.29,9.46-18.38,18.62-21.62,31.87   c-3.2,13.12-0.79,25.72,2.56,38.28c-7.87,1.99-15.41,3.89-25.05,6.32c2.94-10.56,4.6-19.47,7.95-27.7c3.5-8.6,1.28-15.1-3.84-21.95   c-6.63-8.88-12.65-18.21-19.94-28.81C25.196,219.396,41.926,216.356,59.436,213.176z"
   id="path863" />
<g
   aria-label="Žonglování"
   transform="scale(0.96960031,1.0313528)"
   style="font-style:normal;font-weight:normal;font-size:44.04863739px;line-height:1.25;font-family:sans-serif;letter-spacing:0px;word-spacing:0px;fill:#000000;fill-opacity:1;stroke:none;stroke-width:1.10121596"
   id="text913"><path
     d="m 128.78958,315.27181 c -3.96438,-1.18931 -7.48827,-2.86316 -10.52762,-4.97749 l 20.9231,-17.70755 c -0.92502,-2.59887 -1.40956,-4.00843 -1.4536,-4.22867 -0.13215,0.044 -0.44049,0.0881 -0.83693,0.0881 -0.61668,0 -3.12745,-0.22024 -7.53232,-0.61668 -4.66915,-0.44048 -8.32519,-0.83692 -10.96811,-1.14526 -3.30364,-0.39644 -3.92032,-0.61668 -1.85004,-0.61668 h -0.96907 v 4.93344 l 15.72536,1.76195 c -4.40486,3.83223 -9.86689,8.45734 -16.43014,13.91937 -1.18931,0.96907 -1.85004,1.6298 -2.02623,2.02624 -0.0881,0.17619 -0.13215,0.79287 -0.13215,1.85004 0,3.56794 5.90252,7.04778 17.70755,10.35143 l 8.01685,2.15838 c 0.48454,-1.40955 0.88098,-2.9953 1.18932,-4.75725 z m -1.36551,-30.5257 c 1.18932,0 2.07029,-0.35239 2.73102,-1.05717 0.48454,-0.57263 1.27741,-1.6298 2.37863,-3.21555 l 3.1715,-4.09652 -3.74414,-2.15839 -4.66915,5.68228 -4.49296,-5.28584 c -2.02624,1.5417 -3.21555,2.46673 -3.61199,2.86316 0.83692,1.01312 1.7179,2.02624 2.55482,2.95126 1.18931,1.45361 2.11433,2.51077 2.86316,3.2596 0.74883,0.70478 1.7179,1.05717 2.81911,1.05717 z"
     style="font-style:normal;font-variant:normal;font-weight:normal;font-stretch:normal;font-size:44.04863739px;font-family:AmazonCE;-inkscape-font-specification:'AmazonCE, Normal';font-variant-ligatures:normal;font-variant-caps:normal;font-variant-numeric:normal;font-feature-settings:normal;text-align:start;writing-mode:lr-tb;text-anchor:start;stroke-width:1.10121596"
     id="path1272"
     inkscape:connector-curvature="0" /><path
     d="m 163.95147,302.53589 c 0,-2.95126 -0.96907,-5.19774 -2.95126,-6.78349 -1.80599,-1.4536 -4.18462,-2.15838 -7.17993,-2.15838 -2.68696,0 -5.10964,0.96907 -7.17992,2.86316 -2.07029,1.89409 -3.08341,4.18462 -3.08341,6.87159 0,2.86316 1.32146,5.15369 3.96438,6.82754 2.15838,1.3655 4.53701,2.02623 7.22398,2.02623 2.64291,0 4.84535,-0.92502 6.56324,-2.81911 1.76195,-1.89409 2.64292,-4.14057 2.64292,-6.82754 z m -2.90721,13.43484 h -13.17054 v 4.97749 h 13.17054 z m -1.58575,-13.25864 c 0,1.18931 -0.48454,2.29052 -1.40956,3.25959 -0.92502,0.92503 -2.02623,1.40956 -3.21555,1.40956 -1.49765,0 -2.81911,-0.35239 -4.00842,-1.05717 -1.36551,-0.83692 -2.07029,-1.98218 -2.07029,-3.34769 0,-2.90721 1.58575,-4.36082 4.8013,-4.36082 3.92033,0 5.90252,1.36551 5.90252,4.09653 z"
     style="font-style:normal;font-variant:normal;font-weight:normal;font-stretch:normal;font-size:44.04863739px;font-family:AmazonCE;-inkscape-font-specification:'AmazonCE, Normal';font-variant-ligatures:normal;font-variant-caps:normal;font-variant-numeric:normal;font-feature-settings:normal;text-align:start;writing-mode:lr-tb;text-anchor:start;stroke-width:1.10121596"
     id="path1274"
     inkscape:connector-curvature="0" /><path
     d="m 195.43603,291.43564 c -0.30834,0.0441 -0.88097,0.0881 -1.71789,0.0881 -0.83693,0 -1.8941,-0.044 -3.2596,-0.0881 l -1.05717,17.04682 -12.20147,-12.33362 c -2.33458,0.61668 -3.70009,1.01312 -4.05248,1.14527 l -5.59418,18.67662 4.58106,1.45361 4.62511,-14.6682 13.21459,13.43483 c 1.806,-0.74882 3.21555,-1.32146 4.18462,-1.67384 z"
     style="font-style:normal;font-variant:normal;font-weight:normal;font-stretch:normal;font-size:44.04863739px;font-family:AmazonCE;-inkscape-font-specification:'AmazonCE, Normal';font-variant-ligatures:normal;font-variant-caps:normal;font-variant-numeric:normal;font-feature-settings:normal;text-align:start;writing-mode:lr-tb;text-anchor:start;stroke-width:1.10121596"
     id="path1276" /><path
     d="m 216.05631,287.99985 c -1.49766,-1.76195 -2.46673,-2.99531 -2.95126,-3.65604 -3.92033,3.03935 -6.34301,5.37393 -7.22398,7.09183 -4.53701,0.48453 -7.35612,3.70009 -7.35612,8.28114 0,2.29053 1.14526,4.31677 3.39174,6.03467 -0.83692,1.6298 -1.27741,3.12745 -1.27741,4.53701 0,0.83692 0.39644,2.20243 1.14527,4.05247 0.79287,1.806 1.18931,3.1715 1.18931,4.00843 0,1.27741 -0.48454,2.42267 -1.49765,3.39174 -1.14527,1.10122 -2.02624,1.89409 -2.59887,2.42268 l 3.83223,2.95126 3.65603,-3.61199 c 1.32146,-1.49766 1.98219,-2.99531 1.98219,-4.53701 0,-1.05717 -0.48453,-2.77507 -1.4536,-5.19774 -0.92502,-2.42268 -1.40956,-3.70009 -1.40956,-3.83223 0,-1.05717 0.79288,-2.02624 2.37863,-2.95126 l 4.36081,-2.51077 c 1.58575,-1.23337 2.37863,-2.81912 2.37863,-4.75726 0,-2.86316 -1.18931,-5.28583 -3.56794,-7.26802 0.57263,-0.57263 1.58575,-1.40956 2.95126,-2.46673 1.18931,-0.88097 1.85004,-1.5417 2.07029,-1.98218 z m -6.29896,11.80503 c 0,0.70478 -0.35239,1.27741 -1.01312,1.67385 -0.57263,0.39644 -1.18931,0.57263 -1.93814,0.57263 -2.20243,0 -3.30365,-0.79287 -3.30365,-2.33458 0,-1.98219 1.7179,-3.39174 3.70009,-3.39174 0.83692,0 1.4536,0.39644 1.93814,1.18931 0.39644,0.66073 0.61668,1.40956 0.61668,2.29053 z"
     style="font-style:normal;font-variant:normal;font-weight:normal;font-stretch:normal;font-size:44.04863739px;font-family:AmazonCE;-inkscape-font-specification:'AmazonCE, Normal';font-variant-ligatures:normal;font-variant-caps:normal;font-variant-numeric:normal;font-feature-settings:normal;text-align:start;writing-mode:lr-tb;text-anchor:start;stroke-width:1.10121596"
     id="path1278" /><path
     d="m 226.66033,317.68863 c -1.18932,-1.58575 -2.07029,-3.03936 -2.55482,-4.31677 -0.57264,-1.4536 -0.83693,-3.0834 -0.83693,-4.9775 l 2.46673,-25.8125 c -2.15839,-0.30834 -3.74414,-0.57263 -4.75726,-0.74882 l -2.73101,26.73752 c 0,2.37863 0.39644,4.49296 1.14526,6.38705 0.48454,1.23336 1.58575,3.12746 3.21555,5.68228 2.51078,-1.58575 3.83223,-2.55482 4.05248,-2.95126 z"
     style="font-style:normal;font-variant:normal;font-weight:normal;font-stretch:normal;font-size:44.04863739px;font-family:AmazonCE;-inkscape-font-specification:'AmazonCE, Normal';font-variant-ligatures:normal;font-variant-caps:normal;font-variant-numeric:normal;font-feature-settings:normal;text-align:start;writing-mode:lr-tb;text-anchor:start;stroke-width:1.10121596"
     id="path1280" /><path
     d="m 248.78512,297.20601 c 0,-2.95126 -0.96907,-5.19774 -2.95125,-6.78349 -1.806,-1.4536 -4.18462,-2.15838 -7.17993,-2.15838 -2.68697,0 -5.10964,0.96907 -7.17993,2.86316 -2.07029,1.89409 -3.0834,4.18462 -3.0834,6.87159 0,2.86316 1.32145,5.15369 3.96437,6.82754 2.15839,1.3655 4.53701,2.02623 7.22398,2.02623 2.64292,0 4.84535,-0.92502 6.56325,-2.81911 1.76194,-1.89409 2.64291,-4.14057 2.64291,-6.82754 z m -2.90721,13.43484 h -13.17054 v 4.97749 h 13.17054 z m -1.58575,-13.25864 c 0,1.18931 -0.48453,2.29052 -1.40955,3.25959 -0.92502,0.92503 -2.02624,1.40956 -3.21555,1.40956 -1.49766,0 -2.81912,-0.35239 -4.00843,-1.05717 -1.36551,-0.83692 -2.07029,-1.98218 -2.07029,-3.34769 0,-2.90721 1.58576,-4.36082 4.80131,-4.36082 3.92032,0 5.90251,1.36551 5.90251,4.09653 z"
     style="font-style:normal;font-variant:normal;font-weight:normal;font-stretch:normal;font-size:44.04863739px;font-family:AmazonCE;-inkscape-font-specification:'AmazonCE, Normal';font-variant-ligatures:normal;font-variant-caps:normal;font-variant-numeric:normal;font-feature-settings:normal;text-align:start;writing-mode:lr-tb;text-anchor:start;stroke-width:1.10121596"
     id="path1282" /><path
     d="m 279.5436,287.84991 c 0,-0.26429 -0.0881,-0.48454 -0.22024,-0.61668 -1.4536,-0.1762 -2.95126,-0.48454 -4.40486,-0.88097 -2.46673,9.73475 -6.73944,16.87062 -12.77411,21.45168 l -0.13214,-4.18462 c -0.1762,-5.77037 -0.83693,-11.67289 -2.02624,-17.61945 -2.95126,0.57263 -4.53701,0.88097 -4.75725,0.88097 v 0.79288 l 0.88097,5.06559 c 0.57263,3.52389 0.88097,6.25491 0.88097,8.19305 v 8.19304 l -0.044,1.32146 c -0.044,0.83693 -0.0881,1.45361 -0.0881,1.806 0.13214,0.044 0.83692,0.52858 2.07028,1.4536 0.83693,0.61668 1.32146,0.92502 1.45361,0.92502 0.17619,0 0.70477,-0.30834 1.5417,-0.88097 l 1.6298,-1.05717 c 2.95126,-1.36551 6.343,-5.02154 10.17523,-11.01216 3.87628,-5.99061 5.81442,-10.61572 5.81442,-13.83127 z"
     style="font-style:normal;font-variant:normal;font-weight:normal;font-stretch:normal;font-size:44.04863739px;font-family:AmazonCE;-inkscape-font-specification:'AmazonCE, Normal';font-variant-ligatures:normal;font-variant-caps:normal;font-variant-numeric:normal;font-feature-settings:normal;text-align:start;writing-mode:lr-tb;text-anchor:start;stroke-width:1.10121596"
     id="path1284"
     inkscape:connector-curvature="0" /><path
     d="m 306.95904,305.84305 -3.65604,3.30365 c -1.01312,-1.18931 -2.29053,-3.1715 -3.74414,-5.90252 -1.10121,2.42268 -2.90721,4.58106 -5.41798,6.43111 -2.64292,1.93814 -5.24179,2.90721 -7.84065,2.90721 -0.57264,0 -1.27742,-0.44049 -2.02624,-1.32146 -0.74883,-0.88098 -1.10122,-1.6298 -1.10122,-2.20243 0,-3.21556 0.83693,-6.87159 2.46673,-10.96812 2.07028,-5.15369 4.6251,-7.8847 7.75256,-8.19304 -1.806,-2.51077 -3.47985,-3.2596 -6.65135,-3.2596 -0.57263,0 -0.96907,0.0441 -1.18931,0.13214 0,-0.44048 0,-2.11433 -0.044,-4.97749 h 4.00843 c 2.33457,0 4.53701,1.18931 6.60729,3.56794 1.67385,1.93814 3.12745,4.31676 4.31677,7.17993 l 2.29053,5.77037 c 1.27741,3.0834 2.68696,5.59417 4.22867,7.53231 z m -10.35143,-9.47045 c 0,-0.48454 -0.2643,-1.14527 -0.79288,-1.89409 -2.59887,0.66073 -4.49296,2.37862 -5.68227,5.15369 -0.52859,1.27741 -1.10122,3.70008 -1.7179,7.35612 2.07029,-0.48454 4.00843,-1.98219 5.81442,-4.58106 1.58575,-2.33458 2.37863,-4.31677 2.37863,-6.03466 z m -2.99531,-16.3861 c 0.88097,0.66073 2.15838,1.7179 3.87628,3.12746 l 7.31207,-7.22398 c -0.57263,-0.79287 -1.89409,-2.46672 -3.87628,-5.06559 z"
     style="font-style:normal;font-variant:normal;font-weight:normal;font-stretch:normal;font-size:44.04863739px;font-family:AmazonCE;-inkscape-font-specification:'AmazonCE, Normal';font-variant-ligatures:normal;font-variant-caps:normal;font-variant-numeric:normal;font-feature-settings:normal;text-align:start;writing-mode:lr-tb;text-anchor:start;stroke-width:1.10121596"
     id="path1286"
     inkscape:connector-curvature="0" /><path
     d="m 340.22225,276.41566 c -0.30835,0.0441 -0.88098,0.0881 -1.7179,0.0881 -0.83693,0 -1.89409,-0.044 -3.2596,-0.0881 l -1.05717,17.04682 -12.20147,-12.33362 c -2.33458,0.61668 -3.70009,1.01312 -4.05248,1.14527 l -5.59417,18.67662 4.58106,1.45361 4.6251,-14.6682 13.21459,13.43483 c 1.806,-0.74882 3.21555,-1.32146 4.18462,-1.67384 z"
     style="font-style:normal;font-variant:normal;font-weight:normal;font-stretch:normal;font-size:44.04863739px;font-family:AmazonCE;-inkscape-font-specification:'AmazonCE, Normal';font-variant-ligatures:normal;font-variant-caps:normal;font-variant-numeric:normal;font-feature-settings:normal;text-align:start;writing-mode:lr-tb;text-anchor:start;stroke-width:1.10121596"
     id="path1288"
     inkscape:connector-curvature="0" /><path
     d="m 357.07494,278.8255 -5.24179,16.95873 -4.58106,-1.45361 5.02155,-16.95872 z m -5.28584,-5.41798 c 0.88097,0.66073 2.15839,1.7179 3.87628,3.12745 l 7.31208,-7.22397 c -0.57264,-0.79288 -1.8941,-2.46673 -3.87628,-5.0656 z"
     style="font-style:normal;font-variant:normal;font-weight:normal;font-stretch:normal;font-size:44.04863739px;font-family:AmazonCE;-inkscape-font-specification:'AmazonCE, Normal';font-variant-ligatures:normal;font-variant-caps:normal;font-variant-numeric:normal;font-feature-settings:normal;text-align:start;writing-mode:lr-tb;text-anchor:start;stroke-width:1.10121596"
     id="path1290"
     inkscape:connector-curvature="0" /></g></g>
<g
   id="g867">
</g>
<g
   id="g869">
</g>
<g
   id="g871">
</g>
<g
   id="g873">
</g>
<g
   id="g875">
</g>
<g
   id="g877">
</g>
<g
   id="g879">
</g>
<g
   id="g881">
</g>
<g
   id="g883">
</g>
<g
   id="g885">
</g>
<g
   id="g887">
</g>
<g
   id="g889">
</g>
<g
   id="g891">
</g>
<g
   id="g893">
</g>
<g
   id="g895">
</g>
</svg>